M48
;GenerationSoftware,Autodesk,EAGLE,9.6.2*%
;CreationDate,2020-09-04T22:47:16Z*%
FMAT,2
ICI,OFF
METRIC,TZ,0000.00000
T11C0.30000
T10C0.35000
T9C0.60000
T8C0.65000
T7C0.80000
T6C1.00000
T5C1.05000
T4C1.30000
T3C1.70000
T2C3.05000
T1C4.00000
%
G90
M71
T1
X2381250Y7620000
X4762500Y7620000
X6667500Y7620000
X8572500Y7620000
X10477500Y7620000
X12382500Y7620000
X14287500Y7620000
X16192500Y7620000
X18097500Y7620000
X20002500Y7620000
X21907500Y7620000
X23812500Y7620000
X25717500Y7620000
X28098750Y7620000
X1905000Y9525000
X3810000Y9525000
X5715000Y9525000
X7620000Y9525000
X9525000Y9525000
X11430000Y9525000
X13335000Y9525000
X15240000Y9525000
X17145000Y9525000
X19050000Y9525000
X20955000Y9525000
X22860000Y9525000
X24765000Y9525000
X2619375Y5715000
X5238750Y5715000
X7143750Y5715000
X9048750Y5715000
X10953750Y5715000
X12858750Y5715000
X14763750Y5715000
X16668750Y5715000
X18573750Y5715000
X20478750Y5715000
X22383750Y5715000
X24288750Y5715000
X7620000Y3810000
X9525000Y3810000
X11430000Y3810000
X13335000Y3810000
X15240000Y3810000
X17145000Y3810000
X19050000Y3810000
X20955000Y3810000
X22860000Y3810000
X24765000Y3810000
X28575000Y3810000
X6191250Y3810000
X8096250Y3810000
X10001250Y3810000
X11906250Y3810000
X13811250Y3810000
X15716250Y3810000
X17621250Y3810000
X19526250Y3810000
X21431250Y3810000
X23336250Y3810000
X2143125Y1905000
X4524375Y1905000
X6905625Y1905000
X22860000Y1905000
X24765000Y1905000
X26670000Y1905000
X23574375Y1905000
X25955625Y1905000
X2143125Y5715000
X27622500Y9525000
X24050625Y3810000
X4762500Y1905000
X28812500Y8701000
X26432500Y8701000
X27384375Y5715000
X2381250Y1905000
X25955625Y3810000
X28574375Y4891000
X26194375Y4891000
X14049375Y1905000
X28575000Y9525000
X26670000Y9525000
X19049375Y2729000
X9049375Y2729000
X2857500Y3810000
X5715000Y3810000
X26908125Y3810000
X4047500Y2986000
X1667500Y2986000
X3095625Y3810000
X26670000Y3810000
X28336875Y1905000
X4285625Y2986000
X1905625Y2986000
X20955000Y1905000
X21193125Y1905000
X28575000Y1905000
T2
X1905625Y4510000
X4285625Y4510000
X1667500Y4510000
X4047500Y4510000
X9049375Y1205000
X19049375Y1205000
X26194375Y6415000
X28574375Y6415000
X26432500Y10225000
X28812500Y10225000
T3
X26225500Y7620000
X1635125Y1905000
X2889250Y7620000
X1873250Y7620000
X5270500Y7620000
X4254500Y7620000
X7175500Y7620000
X6159500Y7620000
X9080500Y7620000
X8064500Y7620000
X10985500Y7620000
X9969500Y7620000
X12890500Y7620000
X11874500Y7620000
X14795500Y7620000
X13779500Y7620000
X16700500Y7620000
X15684500Y7620000
X18605500Y7620000
X17589500Y7620000
X20510500Y7620000
X19494500Y7620000
X22415500Y7620000
X21399500Y7620000
X24320500Y7620000
X23304500Y7620000
X25209500Y7620000
X28606750Y7620000
X27590750Y7620000
X2413000Y9525000
X1397000Y9525000
X4318000Y9525000
X3302000Y9525000
X6223000Y9525000
X5207000Y9525000
X8128000Y9525000
X7112000Y9525000
X10033000Y9525000
X9017000Y9525000
X11938000Y9525000
X10922000Y9525000
X13843000Y9525000
X12827000Y9525000
X15748000Y9525000
X14732000Y9525000
X17653000Y9525000
X16637000Y9525000
X19558000Y9525000
X18542000Y9525000
X21463000Y9525000
X20447000Y9525000
X23368000Y9525000
X22352000Y9525000
X25273000Y9525000
X24257000Y9525000
X3127375Y5715000
X2111375Y5715000
X5746750Y5715000
X4730750Y5715000
X7651750Y5715000
X6635750Y5715000
X9556750Y5715000
X8540750Y5715000
X11461750Y5715000
X10445750Y5715000
X13366750Y5715000
X12350750Y5715000
X15271750Y5715000
X14255750Y5715000
X17176750Y5715000
X16160750Y5715000
X19081750Y5715000
X18065750Y5715000
X20986750Y5715000
X19970750Y5715000
X22891750Y5715000
X21875750Y5715000
X24796750Y5715000
X23780750Y5715000
X8128000Y3810000
X7112000Y3810000
X10033000Y3810000
X9017000Y3810000
X11938000Y3810000
X10922000Y3810000
X23542625Y3810000
X24558625Y3810000
X13843000Y3810000
X4254500Y1905000
X5270500Y1905000
X12827000Y3810000
X1873250Y1905000
X2889250Y1905000
X15748000Y3810000
X25447625Y3810000
X26463625Y3810000
X14732000Y3810000
X28067000Y9525000
X29083000Y9525000
X17653000Y3810000
X26162000Y9525000
X27178000Y9525000
X16637000Y3810000
X5207000Y3810000
X6223000Y3810000
X19558000Y3810000
X26400125Y3810000
X27416125Y3810000
X18542000Y3810000
X26162000Y3810000
X27178000Y3810000
X21463000Y3810000
X27828875Y1905000
X28844875Y1905000
X20447000Y3810000
X28067000Y1905000
X29083000Y1905000
X23368000Y3810000
X20685125Y1905000
X21701125Y1905000
X22352000Y3810000
X20447000Y1905000
X21463000Y1905000
X25273000Y3810000
X24257000Y3810000
X29083000Y3810000
X28067000Y3810000
X6699250Y3810000
X2587625Y3810000
X5683250Y3810000
X8604250Y3810000
X7588250Y3810000
X10509250Y3810000
X9493250Y3810000
X12414250Y3810000
X2349500Y3810000
X3365500Y3810000
X11398250Y3810000
X14319250Y3810000
X13303250Y3810000
X16224250Y3810000
X15208250Y3810000
X13541375Y1905000
X14557375Y1905000
X18129250Y3810000
X17113250Y3810000
X20034250Y3810000
X19018250Y3810000
X21939250Y3810000
X26876375Y5715000
X27892375Y5715000
X20923250Y3810000
X23844250Y3810000
X22828250Y3810000
X2651125Y1905000
X3603625Y3810000
X27114500Y9525000
X28130500Y9525000
X5032375Y1905000
X1635125Y5715000
X2651125Y5715000
X4016375Y1905000
X25447625Y1905000
X26463625Y1905000
X7413625Y1905000
X23066375Y1905000
X24082375Y1905000
X6397625Y1905000
X26162000Y1905000
X27178000Y1905000
X23368000Y1905000
X24257000Y1905000
X25273000Y1905000
X22352000Y1905000
T4
X25146000Y1651000
X22606000Y1397000
X24511000Y1397000
X23241000Y1651000
X6651625Y1397000
X27051000Y1651000
X7286625Y1651000
X4270375Y1397000
X26416000Y1397000
X4905375Y1651000
X1889125Y1397000
X23955375Y1651000
X2524125Y1651000
X23082250Y3302000
X23320375Y1397000
X23717250Y3556000
X21177250Y3302000
X28479750Y7366000
X26336625Y1651000
X21812250Y3556000
X19272250Y3302000
X25701625Y1397000
X19907250Y3556000
X17367250Y3302000
X2524125Y5461000
X18002250Y3556000
X15462250Y3302000
X1889125Y5207000
X16097250Y3556000
X13557250Y3302000
X28003500Y9271000
X14192250Y3556000
X11652250Y3302000
X27368500Y9017000
X12287250Y3556000
X9747250Y3302000
X27765375Y5461000
X10382250Y3556000
X7842250Y3302000
X27130375Y5207000
X13081000Y3302000
X8477250Y3556000
X14430375Y1651000
X5937250Y3302000
X6572250Y3556000
X13795375Y1397000
X28321000Y3302000
X28956000Y3556000
X13716000Y3556000
X24511000Y3302000
X25146000Y3556000
X11176000Y3302000
X22606000Y3302000
X23241000Y3556000
X11811000Y3556000
X20701000Y3302000
X21336000Y3556000
X3238500Y3556000
X18796000Y3302000
X19431000Y3556000
X2603500Y3302000
X16891000Y3302000
X17526000Y3556000
X3476625Y3556000
X14986000Y3302000
X15621000Y3556000
X2841625Y3302000
X2762250Y7366000
X2127250Y7112000
X23796625Y3302000
X5143500Y7366000
X4508500Y7112000
X9271000Y3302000
X7048500Y7366000
X6413500Y7112000
X9906000Y3556000
X8953500Y7366000
X8318500Y7112000
X24431625Y3556000
X10858500Y7366000
X10223500Y7112000
X7366000Y3302000
X12763500Y7366000
X12128500Y7112000
X8001000Y3556000
X14668500Y7366000
X14033500Y7112000
X24034750Y5207000
X16573500Y7366000
X15938500Y7112000
X24669750Y5461000
X18478500Y7366000
X17843500Y7112000
X22129750Y5207000
X20383500Y7366000
X19748500Y7112000
X21336000Y1651000
X22288500Y7366000
X21653500Y7112000
X20701000Y1397000
X24193500Y7366000
X23558500Y7112000
X21574125Y1651000
X26098500Y7366000
X25463500Y7112000
X20939125Y1397000
X27844750Y7112000
X2286000Y9271000
X28956000Y1651000
X1651000Y9017000
X4191000Y9271000
X28321000Y1397000
X3556000Y9017000
X6096000Y9271000
X28717875Y1651000
X5461000Y9017000
X8001000Y9271000
X28082875Y1397000
X7366000Y9017000
X9906000Y9271000
X27051000Y3556000
X9271000Y9017000
X11811000Y9271000
X26416000Y3302000
X11176000Y9017000
X13716000Y9271000
X27289125Y3556000
X13081000Y9017000
X15621000Y9271000
X26654125Y3302000
X14986000Y9017000
X17526000Y9271000
X6096000Y3556000
X16891000Y9017000
X19431000Y9271000
X5461000Y3302000
X18796000Y9017000
X21336000Y9271000
X27051000Y9271000
X20701000Y9017000
X23241000Y9271000
X26416000Y9017000
X22606000Y9017000
X25146000Y9271000
X28956000Y9271000
X24511000Y9017000
X3000375Y5461000
X28321000Y9017000
X2365375Y5207000
X5619750Y5461000
X26336625Y3556000
X4984750Y5207000
X7524750Y5461000
X25701625Y3302000
X6889750Y5207000
X2762250Y1651000
X9429750Y5461000
X8794750Y5207000
X2127250Y1397000
X11334750Y5461000
X10699750Y5207000
X22764750Y5461000
X13239750Y5461000
X12604750Y5207000
X20224750Y5207000
X15144750Y5461000
X14509750Y5207000
X20859750Y5461000
X17049750Y5461000
X16414750Y5207000
X5143500Y1651000
X18954750Y5461000
X18319750Y5207000
X4508500Y1397000
T5
X2008188Y2411016
X2516188Y2411016
X4643438Y2403574
X2262188Y2411016
X26546000Y4300000
X4897438Y2403574
X27054000Y4300000
X26800000Y4300000
X4389438Y2403574
X28206000Y2400000
X28714000Y2400000
X28460000Y2400000
X20816000Y2406250
X21324000Y2406250
X21070000Y2406250
X2717563Y4311250
X3225563Y4311250
X2971563Y4311250
T6
X23923625Y4318000
X17494250Y4318000
X24177625Y4318000
X25828625Y4318000
X26082625Y4318000
X28448000Y10033000
X28702000Y10033000
X26543000Y10033000
X26797000Y10033000
X2508250Y8128000
X2254250Y8128000
X17748250Y4318000
X15589250Y4318000
X4889500Y8128000
X4635500Y8128000
X6794500Y8128000
X6540500Y8128000
X8699500Y8128000
X8445500Y8128000
X15843250Y4318000
X13684250Y4318000
X13938250Y4318000
X11779250Y4318000
X10604500Y8128000
X5588000Y4318000
X12033250Y4318000
X19653250Y4318000
X5842000Y4318000
X19399250Y4318000
X9874250Y4318000
X10128250Y4318000
X7969250Y4318000
X8223250Y4318000
X6064250Y4318000
X6318250Y4318000
X28448000Y4318000
X28702000Y4318000
X24638000Y4318000
X24892000Y4318000
X22733000Y4318000
X22987000Y4318000
X20828000Y4318000
X21082000Y4318000
X18923000Y4318000
X19177000Y4318000
X13922375Y2413000
X14176375Y2413000
X17018000Y4318000
X17272000Y4318000
X21558250Y4318000
X15113000Y4318000
X15367000Y4318000
X21304250Y4318000
X13208000Y4318000
X13462000Y4318000
X11303000Y4318000
X11557000Y4318000
X9398000Y4318000
X9652000Y4318000
X7493000Y4318000
X7747000Y4318000
X24161750Y6223000
X24415750Y6223000
X22256750Y6223000
X22510750Y6223000
X20351750Y6223000
X20605750Y6223000
X18446750Y6223000
X18700750Y6223000
X16541750Y6223000
X16795750Y6223000
X14636750Y6223000
X14890750Y6223000
X12731750Y6223000
X12985750Y6223000
X10826750Y6223000
X11080750Y6223000
X23463250Y4318000
X23209250Y4318000
X8921750Y6223000
X9175750Y6223000
X7016750Y6223000
X7270750Y6223000
X5111750Y6223000
X5365750Y6223000
X2492375Y6223000
X27257375Y6223000
X2746375Y6223000
X24638000Y10033000
X24892000Y10033000
X22733000Y10033000
X22987000Y10033000
X20828000Y10033000
X21082000Y10033000
X18923000Y10033000
X19177000Y10033000
X27511375Y6223000
X17018000Y10033000
X17272000Y10033000
X27495500Y10033000
X27749500Y10033000
X15113000Y10033000
X2016125Y6223000
X2270125Y6223000
X15367000Y10033000
X13208000Y10033000
X25828625Y2413000
X26082625Y2413000
X13462000Y10033000
X11303000Y10033000
X11557000Y10033000
X9398000Y10033000
X9652000Y10033000
X7493000Y10033000
X7747000Y10033000
X5588000Y10033000
X5842000Y10033000
X3683000Y10033000
X3937000Y10033000
X23447375Y2413000
X23701375Y2413000
X1778000Y10033000
X26543000Y2413000
X26797000Y2413000
X2032000Y10033000
X24638000Y2413000
X24892000Y2413000
X27971750Y8128000
X28225750Y8128000
X22733000Y2413000
X22987000Y2413000
X25590500Y8128000
X25844500Y8128000
X6778625Y2413000
X7032625Y2413000
X23685500Y8128000
X23939500Y8128000
X21780500Y8128000
X22034500Y8128000
X19875500Y8128000
X20129500Y8128000
X17970500Y8128000
X18224500Y8128000
X16065500Y8128000
X16319500Y8128000
X14160500Y8128000
X14414500Y8128000
X12255500Y8128000
X12509500Y8128000
X10350500Y8128000
T7
X7910215Y6187988
X7910215Y6387988
X3975000Y5241758
X3975000Y5741758
X3645000Y5491758
T8
X3101852Y9919844
X2523852Y9919844
T9
X2380852Y10284844
X3244852Y10284844
X3244852Y9866844
X2380852Y9866844
T10
X29073574Y4635997
X28976836Y4635997
X28865215Y4680645
X28835449Y4807149
X28872656Y4926211
X28976836Y4970860
X29073574Y4970860
X29170312Y4970860
X29267051Y4970860
X29363789Y4970860
X29460528Y4970860
X3445371Y7895332
X3579316Y7895332
X3586757Y7419082
X3445371Y7419082
X13885664Y5945684
X13729395Y5945684
X13729395Y5491758
X13885664Y5491758
X19965293Y1696641
X20143887Y1696641
X20129004Y2143125
X19957852Y2143125
X19875996Y1748731
X20054590Y1748731
X20225742Y1756172
X20218301Y2091035
X20047148Y2091035
X19875996Y2091035
X13967520Y5543848
X13811250Y5543848
X13654981Y5543848
X13960078Y5886153
X13803809Y5886153
X13654981Y5886153
X1093886Y4635996
X1198066Y4635996
X1302245Y4635996
X1406425Y4635996
X1503163Y4635996
X1614785Y4710410
X1644550Y4799707
X1614784Y4896445
X1503163Y4963418
X1398984Y4963418
X1294804Y4963418
X1190624Y4963418
X1086445Y4963418
X3378398Y7471172
X3653730Y7471172
X3519785Y7471172
X3370956Y7835801
X3512343Y7835801
X3646289Y7835801
X3824883Y7835801
X4278808Y7932539
X4278808Y8029278
X4182070Y8081368
X4182070Y7984629
X3914179Y7783711
X4003476Y7783711
X4092773Y7783711
X4182070Y7887891
X4003476Y7887891
X3966269Y8133457
X5045273Y7739063
X28321992Y4040684
X8401348Y2544961
X8483203Y3043535
X4152305Y7478613
X3467695Y8713887
X5395020Y6727031
X4092773Y7887891
X2842617Y8788301
X2931914Y8081367
X3341191Y8178106
X2113359Y5313164
X14027051Y2760762
X11712773Y2753320
X5417344Y1339453
X3996035Y2477988
X4628555Y2946797
X21862852Y3050977
X16147852Y3050977
X18067734Y3050977
X18618398Y2872383
X12337852Y3050977
X7947422Y2544961
X11921133Y2068711
X27637383Y3348633
X10998398Y2961680
X10715625Y2634258
X2455664Y4911328
X12918281Y2887266
X13409414Y8215313
X15314414Y8215313
X17219414Y8215313
X16698516Y2872383
X26059805Y3006328
X27741563Y6533555
X21907500Y10105430
X20002500Y10105430
X18097500Y10105430
X16192500Y10105430
X14287500Y10105430
X12367617Y10105430
X8587383Y10105430
X4762500Y10105430
X10097988Y2046387
X8646914Y1302246
X9584531Y3497461
X12620625Y1785938
X11251406Y1562695
X10596563Y1562695
X10060781Y2455664
X9525000Y1711523
X5253633Y3199805
X5402461Y2321719
X26089570Y3378398
X14674453Y2544961
X3199805Y3050977
X7456289Y7054453
X10343555Y6250781
X22294453Y4301133
X23485078Y3393281
X22696289Y8185547
X21014531Y8200430
X27741563Y4583906
X27071836Y10120313
X27265313Y9956602
X27905273Y9941719
X3862090Y3237012
X2113359Y4903887
X3906738Y4814590
X5469434Y5342930
X5878711Y6362403
X4263926Y7047012
X10663535Y4717852
X5104805Y6607969
X6362403Y6697266
X4665762Y5179219
X10157520Y6771680
X13186172Y1562695
X25144512Y1302246
X2812852Y5261074
X4881563Y6451699
X16400859Y9725918
X15798106Y9004102
X3586758Y9316640
X7262813Y6637734
X8453438Y4196953
X7173516Y7143750
X27994570Y5208984
X10187285Y9026426
X5104805Y8810625
X10484941Y10105430
X21766113Y8937129
X6503789Y3824883
X7709297Y7151192
X5454551Y6846094
X6072188Y5089922
X12828984Y4643438
X7486055Y5923359
X6340078Y5104805
X8133457Y7151192
X5685234Y7039570
X2879824Y4836914
X1592461Y5893594
X3244453Y5134570
X7620000Y2351484
X5930801Y7716739
X7113984Y8661797
X5953125Y5715000
X5476875Y7605117
X28024336Y8780859
X28441055Y8006953
X8870156Y7158633
X6920508Y7523262
X8989219Y4196953
X7605117Y1354336
X2931914Y2745879
X2723555Y3036094
X2574727Y4122539
X2887265Y6756797
X3497461Y5700117
X4122539Y5826621
X5461992Y4033242
X5744766Y3229570
X29170312Y4635997
X29267050Y4635997
X6444258Y3393281
X5156894Y2053828
X6034981Y2366367
X27830859Y4092773
X3497461Y10075664
X2232422Y10090547
X2239863Y9718477
X2507754Y8550176
X7620000Y2664023
X14153555Y6797320
X8453438Y1562695
X9525000Y2857500
X9048750Y3348633
X11980664Y5179219
X14912578Y5179219
X13022461Y5179219
X22964180Y1503164
X22964180Y1309688
X21148477Y1398984
X19347656Y2738438
X29363789Y4635997
X29460527Y4635997
X18424922Y2604492
X14480977Y1413867
X27168574Y7820918
X27004863Y7820918
X2902148Y5968008
X3080742Y5134570
X26826270Y7820918
X26818828Y7486054
X3869531Y4033242
X3661172Y3646289
X26989980Y7486054
X27161133Y7486054
X4576465Y3445371
X6652617Y7128867
X26900683Y7426523
X27071836Y7426523
X7054453Y5432227
X8245078Y4769941
X26915567Y7880449
X27086719Y7880449
X14376797Y3452813
X11921133Y2425898
X2797969Y7806035
X2656582Y7166074
X11370469Y2991445
X10373320Y3333750
X4591348Y9450586
X4911328Y7381875
X9778008Y5342930
X10157519Y5551289
X22019121Y1897559
X20389453Y1391543
X24564082Y8535293
X25732383Y10097988
X23217188Y2046387
X27823418Y1287363
X28188047Y9792891
X28217813Y6771680
X26275606Y2068711
X5075039Y3170039
X29140547Y2678906
X29095898Y3259336
X10923984Y6797320
X12248555Y6797320
X29170313Y4241602
X27131367Y3229570
X10447734Y6786563
X8091368Y6736080
X27384375Y4762500
X24184570Y1637109
X6629400Y6720840
X4814054Y6609576
X24273867Y2946797
X24258984Y2411016
X2598664Y6815931
X24869179Y9071074
X6235898Y8252519
X6087070Y6221016
X4740176Y6749356
X3266778Y6436816
X6667500Y6250781
X6340078Y6250781
X4010918Y1614785
X2344043Y3638848
X8185547Y5811738
X6622852Y4524375
X2931914Y9413379
X3601641Y7262813
X3170039Y4822031
X25449609Y5685234
X26714648Y9115723
X2976562Y9644062
X22279570Y2738438
X11474648Y7203281
X2604492Y9644063
X2812852Y9577090
X2396133Y7247930
X1443633Y8632031
X4650879Y8743653
X3705481Y8734663
X6131719Y2262188
X5320605Y2522637
X1765399Y8325148
X27804004Y9105371
X3646289Y2024063
X23872031Y4613672
X27399258Y9271992
X4071938Y8986109
X28976836Y6712148
X12754570Y1332012
X8713887Y2961680
X9487793Y2961680
X2954238Y7270254
X20091797Y4643438
X9257110Y8304609
X9964043Y8304609
X20091797Y4063008
X20389453Y2753320
X24634776Y2801690
X24177129Y2805410
X26982539Y7054453
X25427285Y9033867
X10045898Y2559844
X10566797Y2634258
X3363516Y2448223
X25672852Y3036094
X10849570Y2559844
X3890265Y5398279
X4777383Y3698379
X4554141Y4182070
X3222129Y6518672
X3229570Y5573613
X5402461Y3653731
X12858750Y6797320
X3229570Y5313164
X4643438Y2753320
X16043672Y6797320
X14719102Y6797320
X4637354Y5461498
X5075039Y6042422
X3177481Y8691563
X2998887Y8200429
X3854648Y7939981
X3661172Y8126016
X18099121Y2128242
X3078480Y2423160
X16331797Y3026563
X16490156Y3036094
X5335488Y2143125
X17993320Y6786563
X1706273Y4985742
X2098477Y6712148
X8305800Y1645920
X18651260Y1404938
X1979414Y4985742
X2262188Y4985742
X16624102Y6786563
X18691256Y1708625
X18266563Y3011680
X19615547Y3006328
X18697548Y1816092
X28437840Y2926080
X2461016Y4712500
X4553789Y3065508
X26776680Y2926080
X24871680Y2926080
X5603379Y2879824
X4926211Y2917031
X22966680Y2926080
X19570898Y2857500
X6741914Y2753320
X7659185Y2753363
X21193244Y2926080
X13320117Y2828131
X20141797Y3041445
X20672227Y3022360
X14853047Y2827734
X10164961Y2887266
X22031914Y3031408
X25122188Y3036094
X11534180Y2887266
X9661446Y3015377
X25940742Y3140273
X27607617Y4107656
X7726680Y2926080
X5910977Y2911197
X10298906Y2961680
X8579941Y3043535
X2834283Y2926080
X10654004Y3071211
X11623477Y3065859
X12521797Y3011680
X13974544Y3006328
X28188720Y5194102
X14441680Y3041445
X14585156Y3036094
X26715720Y4831080
X24277320Y4831080
X9897070Y6796606
X9480352Y6727031
X22372320Y4831080
X20467320Y4831080
X9764708Y6603129
X8230195Y6391019
X18562320Y4831080
X16657320Y4831080
X3080742Y8691563
X6369844Y7835801
X14752320Y4831080
X12847320Y4831080
X5821680Y5943600
X11119842Y8585002
X10942320Y4831080
X10462617Y4829473
X9048750Y6722192
X9361289Y8468320
X10239375Y4829473
X8944570Y4836914
X8944570Y8468320
X27949922Y6221016
X7173516Y4888111
X5212080Y4831080
X6317754Y7969746
X5335488Y7969746
X19913203Y6786563
X18558867Y6786563
X7419082Y7676204
X3348633Y5045273
X3348633Y4836914
X8765977Y6488906
X7798594Y6488907
X4561582Y8624590
X26104453Y6860977
X28188047Y7218164
X4345781Y8297168
X4702969Y8453438
X24273867Y6786563
X25657969Y6801445
X4442520Y8304610
X10923984Y2291953
X22353984Y6786563
X23678555Y6797320
X10611445Y2291953
X7128867Y2946797
X20448984Y6782437
X21773555Y6797320
T11
X2552819Y4922163
X3169801Y6736080
X2560320Y5105400
X5623560Y4815840
X3231594Y6675120
X6233517Y3108246
X18753654Y2237006
X8158758Y2072640
X3759696Y5919133
X4785718Y6071175
X9825514Y2070140
X10955358Y1828800
X8901589Y3184088
X8708410Y2540794
X10501432Y1932980
X10598170Y1932979
X10687467Y1955303
X10761881Y2022276
X10278190Y1955304
X11156276Y2744093
X10873502Y2744093
X10635377Y2446437
X11022330Y2617589
X11186041Y2453878
X11104186Y2297608
X11312545Y2290167
X10330280Y2379464
X5045869Y6852642
X6371392Y7330440
X9682877Y2379464
X3246120Y6797040
X11483698Y2513410
X11483698Y2766418
X11483698Y2639913
X3570387Y8569523
X2122627Y9887803
X4167188Y10127754
X2639517Y8024018
X2634258Y6965156
X2910784Y7048206
X3627120Y4036457
X3809643Y3764637
X2849582Y6887766
X7448788Y2223611
X3049786Y6370320
X2911912Y6370677
X4351199Y6766560
X2270403Y4038600
X8776811Y2223254
X4109740Y7647028
X5851029Y2129433
X5515451Y2953345
X8313598Y2628007
X4409003Y3608725
X4344948Y3683853
X6156960Y6690360
X5364480Y4724400
X4264343Y4859417
X23429357Y8082201
X5501640Y4663440
X5303520Y4663440
X4494788Y4827151
X4419600Y5660410
X4084320Y5987891
X18911768Y1522928
X21551146Y8122206
X11314748Y3143012
X10924223Y3139440
X3611880Y4602480
X19661029Y8122206
X7985000Y6670000
X17785794Y8122206
X5120640Y4983480
X3506272Y4983480
X15880794Y8122206
X5198269Y5425440
X4907637Y5516880
X3597413Y5861030
X13960912Y8122206
X5704046Y6742450
X4922520Y5617190
X3663613Y5935028
X4809883Y6180000
X11125200Y8382000
X10514886Y4554617
X4910435Y6239173
X2058829Y5121354
X5431234Y4389438
X4796235Y6820793
X4196655Y7327047
X6248400Y7208520
X7270194Y3047286
X10190202Y2255520
X10127258Y3381375
X10320734Y4890988
X6096000Y7040880
X4803458Y5470088
X8869680Y7010400
X4070152Y7332345
X3533656Y5794058
X4358640Y6553200
X7560826Y6560641
X5303520Y6553200
X4358640Y6431280
X3474720Y6050280
X4994434Y7025997
X4003893Y7255788
X7315200Y8107680
X7768828Y7010400
X3445312Y4845606
X4733628Y7261681
X5441692Y8303300
X5581710Y5219164
X5273040Y5044440
X3383280Y5151120
X6156960Y6979920
X3291840Y5235833
X4117241Y8613755
X4493300Y7940040
X8910161Y2300168
X3139440Y6031468
M30