G04 EAGLE Gerber RS-274X export*
G75*
%MOMM*%
%FSLAX66Y66*%
%LPD*%
%INSolderpaste Bottom*%
%IPPOS*%
%AMOC8*
5,1,8,0,0,1.08239X$1,22.5*%
G01*
%ADD10R,0.600000X0.600000*%
%ADD11R,0.400000X1.400000*%
%ADD12R,1.400000X0.400000*%
%ADD13R,0.700000X0.600000*%
%ADD14R,1.190000X0.730000*%
%ADD15R,1.080000X1.050000*%
%ADD16R,1.050000X1.080000*%
%ADD17R,1.050000X1.300000*%
%ADD18R,1.320800X0.558800*%
%ADD19C,0.145000*%
%ADD20R,0.600000X0.700000*%
%ADD21R,1.168400X1.600200*%
%ADD22R,4.500591X4.500591*%
%ADD23C,0.065000*%
%ADD24R,1.400000X1.000000*%
%ADD25C,0.100000*%
%ADD26R,0.558800X1.130300*%
%ADD27R,1.905000X1.905000*%
%ADD28R,0.700000X0.900000*%
%ADD29R,1.600200X1.168400*%
%ADD30R,0.600000X1.450000*%
%ADD31R,0.300000X1.450000*%
%ADD32R,0.550000X0.550000*%
%ADD33R,0.960000X0.960000*%
%ADD34C,0.130000*%
%ADD35R,1.020000X0.560000*%
%ADD36C,0.070000*%
%ADD37R,1.210300X0.875700*%
%ADD38C,0.028000*%

G36*
X25399306Y90871231D02*
X25399306Y90871231D01*
X25399453Y90871066D01*
X25433853Y90873766D01*
X25434303Y90874163D01*
X25434634Y90873891D01*
X25468234Y90881991D01*
X25468613Y90882447D01*
X25468975Y90882231D01*
X25500875Y90895431D01*
X25501178Y90895941D01*
X25501572Y90895784D01*
X25530972Y90913784D01*
X25531191Y90914338D01*
X25531603Y90914244D01*
X25557903Y90936644D01*
X25558038Y90937238D01*
X25558469Y90937209D01*
X25580869Y90963509D01*
X25580906Y90964100D01*
X25581328Y90964141D01*
X25599328Y90993541D01*
X25599272Y90994131D01*
X25599681Y90994238D01*
X25612881Y91026138D01*
X25612734Y91026713D01*
X25613122Y91026878D01*
X25621222Y91060478D01*
X25620884Y91061263D01*
X25621363Y91061619D01*
X25624063Y91516019D01*
X25623866Y91516281D01*
X25624047Y91516441D01*
X25621347Y91550841D01*
X25620950Y91551291D01*
X25621222Y91551622D01*
X25613122Y91585222D01*
X25612666Y91585600D01*
X25612881Y91585963D01*
X25599681Y91617863D01*
X25599172Y91618166D01*
X25599328Y91618559D01*
X25581328Y91647959D01*
X25580775Y91648178D01*
X25580869Y91648591D01*
X25558469Y91674891D01*
X25557875Y91675025D01*
X25557903Y91675456D01*
X25531603Y91697856D01*
X25531013Y91697894D01*
X25530972Y91698316D01*
X25501572Y91716316D01*
X25500981Y91716259D01*
X25500875Y91716669D01*
X25468975Y91729869D01*
X25468400Y91729722D01*
X25468234Y91730109D01*
X25434634Y91738209D01*
X25434084Y91737972D01*
X25433853Y91738334D01*
X25399453Y91741034D01*
X25399197Y91740872D01*
X25399063Y91741050D01*
X24819063Y91741050D01*
X24818819Y91740869D01*
X24818672Y91741034D01*
X24784272Y91738334D01*
X24783822Y91737938D01*
X24783491Y91738209D01*
X24749891Y91730109D01*
X24749513Y91729653D01*
X24749150Y91729869D01*
X24717250Y91716669D01*
X24716947Y91716159D01*
X24716553Y91716316D01*
X24687153Y91698316D01*
X24686934Y91697763D01*
X24686522Y91697856D01*
X24660222Y91675456D01*
X24660088Y91674863D01*
X24659656Y91674891D01*
X24637256Y91648591D01*
X24637219Y91648000D01*
X24636797Y91647959D01*
X24618797Y91618559D01*
X24618853Y91617969D01*
X24618444Y91617863D01*
X24605244Y91585963D01*
X24605391Y91585388D01*
X24605003Y91585222D01*
X24596903Y91551622D01*
X24597241Y91550838D01*
X24596763Y91550481D01*
X24594063Y91096081D01*
X24594259Y91095819D01*
X24594078Y91095659D01*
X24596778Y91061259D01*
X24597175Y91060809D01*
X24596903Y91060478D01*
X24605003Y91026878D01*
X24605459Y91026500D01*
X24605244Y91026138D01*
X24618444Y90994238D01*
X24618953Y90993934D01*
X24618797Y90993541D01*
X24636797Y90964141D01*
X24637350Y90963922D01*
X24637256Y90963509D01*
X24659656Y90937209D01*
X24660250Y90937075D01*
X24660222Y90936644D01*
X24686522Y90914244D01*
X24687113Y90914206D01*
X24687153Y90913784D01*
X24716553Y90895784D01*
X24717144Y90895841D01*
X24717250Y90895431D01*
X24749150Y90882231D01*
X24749725Y90882378D01*
X24749891Y90881991D01*
X24783491Y90873891D01*
X24784041Y90874128D01*
X24784272Y90873766D01*
X24818672Y90871066D01*
X24818928Y90871228D01*
X24819063Y90871050D01*
X25399063Y90871050D01*
X25399306Y90871231D01*
G37*
G36*
X28759306Y90871231D02*
X28759306Y90871231D01*
X28759453Y90871066D01*
X28793853Y90873766D01*
X28794303Y90874163D01*
X28794634Y90873891D01*
X28828234Y90881991D01*
X28828613Y90882447D01*
X28828975Y90882231D01*
X28860875Y90895431D01*
X28861178Y90895941D01*
X28861572Y90895784D01*
X28890972Y90913784D01*
X28891191Y90914338D01*
X28891603Y90914244D01*
X28917903Y90936644D01*
X28918038Y90937238D01*
X28918469Y90937209D01*
X28940869Y90963509D01*
X28940906Y90964100D01*
X28941328Y90964141D01*
X28959328Y90993541D01*
X28959272Y90994131D01*
X28959681Y90994238D01*
X28972881Y91026138D01*
X28972734Y91026713D01*
X28973122Y91026878D01*
X28981222Y91060478D01*
X28980884Y91061263D01*
X28981363Y91061619D01*
X28984063Y91516019D01*
X28983866Y91516281D01*
X28984047Y91516441D01*
X28981347Y91550841D01*
X28980950Y91551291D01*
X28981222Y91551622D01*
X28973122Y91585222D01*
X28972666Y91585600D01*
X28972881Y91585963D01*
X28959681Y91617863D01*
X28959172Y91618166D01*
X28959328Y91618559D01*
X28941328Y91647959D01*
X28940775Y91648178D01*
X28940869Y91648591D01*
X28918469Y91674891D01*
X28917875Y91675025D01*
X28917903Y91675456D01*
X28891603Y91697856D01*
X28891013Y91697894D01*
X28890972Y91698316D01*
X28861572Y91716316D01*
X28860981Y91716259D01*
X28860875Y91716669D01*
X28828975Y91729869D01*
X28828400Y91729722D01*
X28828234Y91730109D01*
X28794634Y91738209D01*
X28794084Y91737972D01*
X28793853Y91738334D01*
X28759453Y91741034D01*
X28759197Y91740872D01*
X28759063Y91741050D01*
X28179063Y91741050D01*
X28178819Y91740869D01*
X28178672Y91741034D01*
X28144272Y91738334D01*
X28143822Y91737938D01*
X28143491Y91738209D01*
X28109891Y91730109D01*
X28109513Y91729653D01*
X28109150Y91729869D01*
X28077250Y91716669D01*
X28076947Y91716159D01*
X28076553Y91716316D01*
X28047153Y91698316D01*
X28046934Y91697763D01*
X28046522Y91697856D01*
X28020222Y91675456D01*
X28020088Y91674863D01*
X28019656Y91674891D01*
X27997256Y91648591D01*
X27997219Y91648000D01*
X27996797Y91647959D01*
X27978797Y91618559D01*
X27978853Y91617969D01*
X27978444Y91617863D01*
X27965244Y91585963D01*
X27965391Y91585388D01*
X27965003Y91585222D01*
X27956903Y91551622D01*
X27957241Y91550838D01*
X27956763Y91550481D01*
X27954063Y91096081D01*
X27954259Y91095819D01*
X27954078Y91095659D01*
X27956778Y91061259D01*
X27957175Y91060809D01*
X27956903Y91060478D01*
X27965003Y91026878D01*
X27965459Y91026500D01*
X27965244Y91026138D01*
X27978444Y90994238D01*
X27978953Y90993934D01*
X27978797Y90993541D01*
X27996797Y90964141D01*
X27997350Y90963922D01*
X27997256Y90963509D01*
X28019656Y90937209D01*
X28020250Y90937075D01*
X28020222Y90936644D01*
X28046522Y90914244D01*
X28047113Y90914206D01*
X28047153Y90913784D01*
X28076553Y90895784D01*
X28077144Y90895841D01*
X28077250Y90895431D01*
X28109150Y90882231D01*
X28109725Y90882378D01*
X28109891Y90881991D01*
X28143491Y90873891D01*
X28144041Y90874128D01*
X28144272Y90873766D01*
X28178672Y90871066D01*
X28178928Y90871228D01*
X28179063Y90871050D01*
X28759063Y90871050D01*
X28759306Y90871231D01*
G37*
G36*
X42897978Y37218697D02*
X42897978Y37218697D01*
X42898125Y37218531D01*
X42932525Y37221231D01*
X42932975Y37221628D01*
X42933306Y37221356D01*
X42966906Y37229456D01*
X42967284Y37229913D01*
X42967647Y37229697D01*
X42999547Y37242897D01*
X42999850Y37243406D01*
X43000244Y37243250D01*
X43029644Y37261250D01*
X43029863Y37261803D01*
X43030275Y37261709D01*
X43056575Y37284109D01*
X43056709Y37284703D01*
X43057141Y37284675D01*
X43079541Y37310975D01*
X43079578Y37311566D01*
X43080000Y37311606D01*
X43098000Y37341006D01*
X43097944Y37341597D01*
X43098353Y37341703D01*
X43111553Y37373603D01*
X43111406Y37374178D01*
X43111794Y37374344D01*
X43119894Y37407944D01*
X43119556Y37408728D01*
X43120034Y37409084D01*
X43122734Y37863484D01*
X43122538Y37863747D01*
X43122719Y37863906D01*
X43120019Y37898306D01*
X43119622Y37898756D01*
X43119894Y37899088D01*
X43111794Y37932688D01*
X43111338Y37933066D01*
X43111553Y37933428D01*
X43098353Y37965328D01*
X43097844Y37965631D01*
X43098000Y37966025D01*
X43080000Y37995425D01*
X43079447Y37995644D01*
X43079541Y37996056D01*
X43057141Y38022356D01*
X43056547Y38022491D01*
X43056575Y38022922D01*
X43030275Y38045322D01*
X43029684Y38045359D01*
X43029644Y38045781D01*
X43000244Y38063781D01*
X42999653Y38063725D01*
X42999547Y38064134D01*
X42967647Y38077334D01*
X42967072Y38077188D01*
X42966906Y38077575D01*
X42933306Y38085675D01*
X42932756Y38085438D01*
X42932525Y38085800D01*
X42898125Y38088500D01*
X42897869Y38088338D01*
X42897734Y38088516D01*
X42317734Y38088516D01*
X42317491Y38088334D01*
X42317344Y38088500D01*
X42282944Y38085800D01*
X42282494Y38085403D01*
X42282163Y38085675D01*
X42248563Y38077575D01*
X42248184Y38077119D01*
X42247822Y38077334D01*
X42215922Y38064134D01*
X42215619Y38063625D01*
X42215225Y38063781D01*
X42185825Y38045781D01*
X42185606Y38045228D01*
X42185194Y38045322D01*
X42158894Y38022922D01*
X42158759Y38022328D01*
X42158328Y38022356D01*
X42135928Y37996056D01*
X42135891Y37995466D01*
X42135469Y37995425D01*
X42117469Y37966025D01*
X42117525Y37965434D01*
X42117116Y37965328D01*
X42103916Y37933428D01*
X42104063Y37932853D01*
X42103675Y37932688D01*
X42095575Y37899088D01*
X42095913Y37898303D01*
X42095434Y37897947D01*
X42092734Y37443547D01*
X42092931Y37443284D01*
X42092750Y37443125D01*
X42095450Y37408725D01*
X42095847Y37408275D01*
X42095575Y37407944D01*
X42103675Y37374344D01*
X42104131Y37373966D01*
X42103916Y37373603D01*
X42117116Y37341703D01*
X42117625Y37341400D01*
X42117469Y37341006D01*
X42135469Y37311606D01*
X42136022Y37311388D01*
X42135928Y37310975D01*
X42158328Y37284675D01*
X42158922Y37284541D01*
X42158894Y37284109D01*
X42185194Y37261709D01*
X42185784Y37261672D01*
X42185825Y37261250D01*
X42215225Y37243250D01*
X42215816Y37243306D01*
X42215922Y37242897D01*
X42247822Y37229697D01*
X42248397Y37229844D01*
X42248563Y37229456D01*
X42282163Y37221356D01*
X42282713Y37221594D01*
X42282944Y37221231D01*
X42317344Y37218531D01*
X42317600Y37218694D01*
X42317734Y37218516D01*
X42897734Y37218516D01*
X42897978Y37218697D01*
G37*
G36*
X39537978Y37218697D02*
X39537978Y37218697D01*
X39538125Y37218531D01*
X39572525Y37221231D01*
X39572975Y37221628D01*
X39573306Y37221356D01*
X39606906Y37229456D01*
X39607284Y37229913D01*
X39607647Y37229697D01*
X39639547Y37242897D01*
X39639850Y37243406D01*
X39640244Y37243250D01*
X39669644Y37261250D01*
X39669863Y37261803D01*
X39670275Y37261709D01*
X39696575Y37284109D01*
X39696709Y37284703D01*
X39697141Y37284675D01*
X39719541Y37310975D01*
X39719578Y37311566D01*
X39720000Y37311606D01*
X39738000Y37341006D01*
X39737944Y37341597D01*
X39738353Y37341703D01*
X39751553Y37373603D01*
X39751406Y37374178D01*
X39751794Y37374344D01*
X39759894Y37407944D01*
X39759556Y37408728D01*
X39760034Y37409084D01*
X39762734Y37863484D01*
X39762538Y37863747D01*
X39762719Y37863906D01*
X39760019Y37898306D01*
X39759622Y37898756D01*
X39759894Y37899088D01*
X39751794Y37932688D01*
X39751338Y37933066D01*
X39751553Y37933428D01*
X39738353Y37965328D01*
X39737844Y37965631D01*
X39738000Y37966025D01*
X39720000Y37995425D01*
X39719447Y37995644D01*
X39719541Y37996056D01*
X39697141Y38022356D01*
X39696547Y38022491D01*
X39696575Y38022922D01*
X39670275Y38045322D01*
X39669684Y38045359D01*
X39669644Y38045781D01*
X39640244Y38063781D01*
X39639653Y38063725D01*
X39639547Y38064134D01*
X39607647Y38077334D01*
X39607072Y38077188D01*
X39606906Y38077575D01*
X39573306Y38085675D01*
X39572756Y38085438D01*
X39572525Y38085800D01*
X39538125Y38088500D01*
X39537869Y38088338D01*
X39537734Y38088516D01*
X38957734Y38088516D01*
X38957491Y38088334D01*
X38957344Y38088500D01*
X38922944Y38085800D01*
X38922494Y38085403D01*
X38922163Y38085675D01*
X38888563Y38077575D01*
X38888184Y38077119D01*
X38887822Y38077334D01*
X38855922Y38064134D01*
X38855619Y38063625D01*
X38855225Y38063781D01*
X38825825Y38045781D01*
X38825606Y38045228D01*
X38825194Y38045322D01*
X38798894Y38022922D01*
X38798759Y38022328D01*
X38798328Y38022356D01*
X38775928Y37996056D01*
X38775891Y37995466D01*
X38775469Y37995425D01*
X38757469Y37966025D01*
X38757525Y37965434D01*
X38757116Y37965328D01*
X38743916Y37933428D01*
X38744063Y37932853D01*
X38743675Y37932688D01*
X38735575Y37899088D01*
X38735913Y37898303D01*
X38735434Y37897947D01*
X38732734Y37443547D01*
X38732931Y37443284D01*
X38732750Y37443125D01*
X38735450Y37408725D01*
X38735847Y37408275D01*
X38735575Y37407944D01*
X38743675Y37374344D01*
X38744131Y37373966D01*
X38743916Y37373603D01*
X38757116Y37341703D01*
X38757625Y37341400D01*
X38757469Y37341006D01*
X38775469Y37311606D01*
X38776022Y37311388D01*
X38775928Y37310975D01*
X38798328Y37284675D01*
X38798922Y37284541D01*
X38798894Y37284109D01*
X38825194Y37261709D01*
X38825784Y37261672D01*
X38825825Y37261250D01*
X38855225Y37243250D01*
X38855816Y37243306D01*
X38855922Y37242897D01*
X38887822Y37229697D01*
X38888397Y37229844D01*
X38888563Y37229456D01*
X38922163Y37221356D01*
X38922713Y37221594D01*
X38922944Y37221231D01*
X38957344Y37218531D01*
X38957600Y37218694D01*
X38957734Y37218516D01*
X39537734Y37218516D01*
X39537978Y37218697D01*
G37*
D10*
X17636134Y86038866D03*
X17636134Y88238866D03*
X38637109Y88999219D03*
X40837109Y88999219D03*
X56570900Y91826950D03*
X58770900Y91826950D03*
X75695313Y91826953D03*
X77895313Y91826953D03*
X94745313Y91826953D03*
X96945313Y91826953D03*
X113720900Y91901366D03*
X115920900Y91901366D03*
X132845313Y91901369D03*
X135045313Y91901369D03*
X151820900Y91901366D03*
X154020900Y91901366D03*
X170945313Y91901369D03*
X173145313Y91901369D03*
X189697656Y91901366D03*
X191897656Y91901366D03*
X208970897Y91826953D03*
X211170897Y91826953D03*
X228169728Y91901369D03*
X230369728Y91901369D03*
X247070900Y91901369D03*
X249270900Y91901369D03*
X275869141Y91901366D03*
X278069141Y91901366D03*
X25093750Y67865625D03*
X27293750Y67865625D03*
X49055078Y70098047D03*
X51255078Y70098047D03*
X67807422Y69949219D03*
X70007422Y69949219D03*
X83434375Y67865625D03*
X85634375Y67865625D03*
X106353906Y69949219D03*
X108553906Y69949219D03*
X125403906Y69949219D03*
X127603906Y69949219D03*
X144305078Y69949219D03*
X146505078Y69949219D03*
X163503906Y69949219D03*
X165703906Y69949219D03*
X182702734Y69949219D03*
X184902734Y69949219D03*
X201455078Y69949219D03*
X203655078Y69949219D03*
X220653906Y69949219D03*
X222853906Y69949219D03*
X239703906Y69949219D03*
X241903906Y69949219D03*
X258456250Y70098047D03*
X260656250Y70098047D03*
X282566406Y69949219D03*
X284766406Y69949219D03*
X25540234Y48220313D03*
X27740234Y48220313D03*
X54859375Y48220313D03*
X57059375Y48220313D03*
X73909375Y48220313D03*
X76109375Y48220313D03*
X91768750Y48220313D03*
X93968750Y48220313D03*
X112009375Y48220313D03*
X114209375Y48220313D03*
X131059375Y48220313D03*
X133259375Y48220313D03*
X150109375Y48220313D03*
X152309375Y48220313D03*
X169159375Y48220313D03*
X171359375Y48220313D03*
X188209375Y48220313D03*
X190409375Y48220313D03*
X207259375Y48220313D03*
X209459375Y48220313D03*
X226309375Y48220313D03*
X228509375Y48220313D03*
X245359375Y48220313D03*
X247559375Y48220313D03*
X269767188Y48220313D03*
X271967188Y48220313D03*
X30600391Y29319141D03*
X32800391Y29319141D03*
X60217188Y29170313D03*
X62417188Y29170313D03*
X78523047Y29170313D03*
X80723047Y29170313D03*
X97870703Y30212109D03*
X100070703Y30212109D03*
X117962500Y29170313D03*
X120162500Y29170313D03*
X136417188Y29170313D03*
X138617188Y29170313D03*
X155020703Y29170313D03*
X157220703Y29170313D03*
X174368359Y29170313D03*
X176568359Y29170313D03*
X192971875Y29467969D03*
X195171875Y29467969D03*
X213361328Y29319141D03*
X215561328Y29319141D03*
X232262500Y29170313D03*
X234462500Y29170313D03*
X251312500Y29170313D03*
X253512500Y29170313D03*
X270362500Y29170313D03*
X272562500Y29170313D03*
X287031250Y29170313D03*
X289231250Y29170313D03*
X30807422Y22754491D03*
X30807422Y20554491D03*
X55884963Y21266209D03*
X55884963Y19066209D03*
X78283594Y21340625D03*
X78283594Y19140625D03*
X79920703Y21340625D03*
X79920703Y19140625D03*
X183521291Y14957225D03*
X185721291Y14957225D03*
X183521291Y17040819D03*
X185721291Y17040819D03*
X183521291Y19124413D03*
X185721291Y19124413D03*
X183521291Y21208006D03*
X185721291Y21208006D03*
X183521291Y23589256D03*
X185721291Y23589256D03*
D11*
X105039844Y27798828D03*
D12*
X104639844Y23598828D03*
X104639844Y22898828D03*
X104639844Y22198828D03*
X104639844Y21498828D03*
X104639844Y20798828D03*
X104639844Y20098828D03*
X104639844Y15898828D03*
X104639844Y15198828D03*
D11*
X112739844Y27798828D03*
X113439844Y27798828D03*
X107139844Y27798828D03*
X105739844Y27798828D03*
D12*
X113839844Y20798828D03*
X113839844Y20098828D03*
X113839844Y15198828D03*
X113839844Y19389828D03*
D13*
X22398631Y98173047D03*
X22398631Y99173047D03*
X34081641Y99173047D03*
X34081641Y98173047D03*
D14*
X26044922Y95458344D03*
X26044922Y94446344D03*
D15*
X32891013Y93074025D03*
X32891013Y91324025D03*
X29840041Y88273047D03*
X29840041Y90023047D03*
X31179494Y88273047D03*
X31179494Y90023047D03*
X32518950Y88273059D03*
X32518950Y90023059D03*
D16*
X29634766Y69353906D03*
X31384766Y69353906D03*
D15*
X38620897Y73503125D03*
X38620897Y71753125D03*
X37281447Y73503125D03*
X37281447Y71753125D03*
D17*
X46912891Y64401956D03*
X45062891Y64401956D03*
X45062891Y62101956D03*
X46912891Y62101956D03*
D16*
X45038478Y60721875D03*
X46788478Y60721875D03*
X46862894Y65782028D03*
X45112894Y65782028D03*
D18*
X99347734Y24752300D03*
X99347734Y23812500D03*
X99347734Y22872700D03*
X96807734Y22872700D03*
X96807734Y24752300D03*
D15*
X102096094Y25318750D03*
X102096094Y27068750D03*
X94803516Y23532813D03*
X94803516Y25282813D03*
D19*
X96141406Y16096563D02*
X97206406Y16096563D01*
X96141406Y16096563D02*
X96141406Y16531563D01*
X97206406Y16531563D01*
X97206406Y16096563D01*
X97206406Y16234313D02*
X96141406Y16234313D01*
X96141406Y16372063D02*
X97206406Y16372063D01*
X97206406Y16509813D02*
X96141406Y16509813D01*
X96141406Y17046563D02*
X97206406Y17046563D01*
X96141406Y17046563D02*
X96141406Y17481563D01*
X97206406Y17481563D01*
X97206406Y17046563D01*
X97206406Y17184313D02*
X96141406Y17184313D01*
X96141406Y17322063D02*
X97206406Y17322063D01*
X97206406Y17459813D02*
X96141406Y17459813D01*
X96141406Y17996563D02*
X97206406Y17996563D01*
X96141406Y17996563D02*
X96141406Y18431563D01*
X97206406Y18431563D01*
X97206406Y17996563D01*
X97206406Y18134313D02*
X96141406Y18134313D01*
X96141406Y18272063D02*
X97206406Y18272063D01*
X97206406Y18409813D02*
X96141406Y18409813D01*
X98651406Y16096563D02*
X99716406Y16096563D01*
X98651406Y16096563D02*
X98651406Y16531563D01*
X99716406Y16531563D01*
X99716406Y16096563D01*
X99716406Y16234313D02*
X98651406Y16234313D01*
X98651406Y16372063D02*
X99716406Y16372063D01*
X99716406Y16509813D02*
X98651406Y16509813D01*
X98651406Y17046563D02*
X99716406Y17046563D01*
X98651406Y17046563D02*
X98651406Y17481563D01*
X99716406Y17481563D01*
X99716406Y17046563D01*
X99716406Y17184313D02*
X98651406Y17184313D01*
X98651406Y17322063D02*
X99716406Y17322063D01*
X99716406Y17459813D02*
X98651406Y17459813D01*
X98651406Y17996563D02*
X99716406Y17996563D01*
X98651406Y17996563D02*
X98651406Y18431563D01*
X99716406Y18431563D01*
X99716406Y17996563D01*
X99716406Y18134313D02*
X98651406Y18134313D01*
X98651406Y18272063D02*
X99716406Y18272063D01*
X99716406Y18409813D02*
X98651406Y18409813D01*
D20*
X102298438Y17338475D03*
X101298438Y17338475D03*
D16*
X98283006Y19645313D03*
X96533006Y19645313D03*
D21*
X116216906Y21431250D03*
X117740906Y21431250D03*
X116216906Y24258984D03*
X117740906Y24258984D03*
D13*
X39737109Y35474609D03*
X39737109Y34474609D03*
D15*
X41076563Y33504297D03*
X41076563Y35254297D03*
D10*
X101293750Y18752347D03*
X103493750Y18752347D03*
D22*
X38100291Y65931150D03*
D23*
X42147500Y69778359D02*
X42922500Y69778359D01*
X42922500Y69583359D01*
X42147500Y69583359D01*
X42147500Y69778359D01*
X42147500Y69645109D02*
X42922500Y69645109D01*
X42922500Y69706859D02*
X42147500Y69706859D01*
X42147500Y69768609D02*
X42922500Y69768609D01*
X42922500Y69278359D02*
X42147500Y69278359D01*
X42922500Y69278359D02*
X42922500Y69083359D01*
X42147500Y69083359D01*
X42147500Y69278359D01*
X42147500Y69145109D02*
X42922500Y69145109D01*
X42922500Y69206859D02*
X42147500Y69206859D01*
X42147500Y69268609D02*
X42922500Y69268609D01*
X42922500Y68778359D02*
X42147500Y68778359D01*
X42922500Y68778359D02*
X42922500Y68583359D01*
X42147500Y68583359D01*
X42147500Y68778359D01*
X42147500Y68645109D02*
X42922500Y68645109D01*
X42922500Y68706859D02*
X42147500Y68706859D01*
X42147500Y68768609D02*
X42922500Y68768609D01*
X42922500Y68278359D02*
X42147500Y68278359D01*
X42922500Y68278359D02*
X42922500Y68083359D01*
X42147500Y68083359D01*
X42147500Y68278359D01*
X42147500Y68145109D02*
X42922500Y68145109D01*
X42922500Y68206859D02*
X42147500Y68206859D01*
X42147500Y68268609D02*
X42922500Y68268609D01*
X42922500Y67778359D02*
X42147500Y67778359D01*
X42922500Y67778359D02*
X42922500Y67583359D01*
X42147500Y67583359D01*
X42147500Y67778359D01*
X42147500Y67645109D02*
X42922500Y67645109D01*
X42922500Y67706859D02*
X42147500Y67706859D01*
X42147500Y67768609D02*
X42922500Y67768609D01*
X42922500Y67278359D02*
X42147500Y67278359D01*
X42922500Y67278359D02*
X42922500Y67083359D01*
X42147500Y67083359D01*
X42147500Y67278359D01*
X42147500Y67145109D02*
X42922500Y67145109D01*
X42922500Y67206859D02*
X42147500Y67206859D01*
X42147500Y67268609D02*
X42922500Y67268609D01*
X42922500Y66778359D02*
X42147500Y66778359D01*
X42922500Y66778359D02*
X42922500Y66583359D01*
X42147500Y66583359D01*
X42147500Y66778359D01*
X42147500Y66645109D02*
X42922500Y66645109D01*
X42922500Y66706859D02*
X42147500Y66706859D01*
X42147500Y66768609D02*
X42922500Y66768609D01*
X42922500Y66278359D02*
X42147500Y66278359D01*
X42922500Y66278359D02*
X42922500Y66083359D01*
X42147500Y66083359D01*
X42147500Y66278359D01*
X42147500Y66145109D02*
X42922500Y66145109D01*
X42922500Y66206859D02*
X42147500Y66206859D01*
X42147500Y66268609D02*
X42922500Y66268609D01*
X42922500Y65778359D02*
X42147500Y65778359D01*
X42922500Y65778359D02*
X42922500Y65583359D01*
X42147500Y65583359D01*
X42147500Y65778359D01*
X42147500Y65645109D02*
X42922500Y65645109D01*
X42922500Y65706859D02*
X42147500Y65706859D01*
X42147500Y65768609D02*
X42922500Y65768609D01*
X42922500Y65278359D02*
X42147500Y65278359D01*
X42922500Y65278359D02*
X42922500Y65083359D01*
X42147500Y65083359D01*
X42147500Y65278359D01*
X42147500Y65145109D02*
X42922500Y65145109D01*
X42922500Y65206859D02*
X42147500Y65206859D01*
X42147500Y65268609D02*
X42922500Y65268609D01*
X42922500Y64778359D02*
X42147500Y64778359D01*
X42922500Y64778359D02*
X42922500Y64583359D01*
X42147500Y64583359D01*
X42147500Y64778359D01*
X42147500Y64645109D02*
X42922500Y64645109D01*
X42922500Y64706859D02*
X42147500Y64706859D01*
X42147500Y64768609D02*
X42922500Y64768609D01*
X42922500Y64278359D02*
X42147500Y64278359D01*
X42922500Y64278359D02*
X42922500Y64083359D01*
X42147500Y64083359D01*
X42147500Y64278359D01*
X42147500Y64145109D02*
X42922500Y64145109D01*
X42922500Y64206859D02*
X42147500Y64206859D01*
X42147500Y64268609D02*
X42922500Y64268609D01*
X42922500Y63778359D02*
X42147500Y63778359D01*
X42922500Y63778359D02*
X42922500Y63583359D01*
X42147500Y63583359D01*
X42147500Y63778359D01*
X42147500Y63645109D02*
X42922500Y63645109D01*
X42922500Y63706859D02*
X42147500Y63706859D01*
X42147500Y63768609D02*
X42922500Y63768609D01*
X42922500Y63278359D02*
X42147500Y63278359D01*
X42922500Y63278359D02*
X42922500Y63083359D01*
X42147500Y63083359D01*
X42147500Y63278359D01*
X42147500Y63145109D02*
X42922500Y63145109D01*
X42922500Y63206859D02*
X42147500Y63206859D01*
X42147500Y63268609D02*
X42922500Y63268609D01*
X42922500Y62778359D02*
X42147500Y62778359D01*
X42922500Y62778359D02*
X42922500Y62583359D01*
X42147500Y62583359D01*
X42147500Y62778359D01*
X42147500Y62645109D02*
X42922500Y62645109D01*
X42922500Y62706859D02*
X42147500Y62706859D01*
X42147500Y62768609D02*
X42922500Y62768609D01*
X42922500Y62278359D02*
X42147500Y62278359D01*
X42922500Y62278359D02*
X42922500Y62083359D01*
X42147500Y62083359D01*
X42147500Y62278359D01*
X42147500Y62145109D02*
X42922500Y62145109D01*
X42922500Y62206859D02*
X42147500Y62206859D01*
X42147500Y62268609D02*
X42922500Y62268609D01*
X34052500Y62278359D02*
X33277500Y62278359D01*
X34052500Y62278359D02*
X34052500Y62083359D01*
X33277500Y62083359D01*
X33277500Y62278359D01*
X33277500Y62145109D02*
X34052500Y62145109D01*
X34052500Y62206859D02*
X33277500Y62206859D01*
X33277500Y62268609D02*
X34052500Y62268609D01*
X34052500Y62778359D02*
X33277500Y62778359D01*
X34052500Y62778359D02*
X34052500Y62583359D01*
X33277500Y62583359D01*
X33277500Y62778359D01*
X33277500Y62645109D02*
X34052500Y62645109D01*
X34052500Y62706859D02*
X33277500Y62706859D01*
X33277500Y62768609D02*
X34052500Y62768609D01*
X34052500Y63278359D02*
X33277500Y63278359D01*
X34052500Y63278359D02*
X34052500Y63083359D01*
X33277500Y63083359D01*
X33277500Y63278359D01*
X33277500Y63145109D02*
X34052500Y63145109D01*
X34052500Y63206859D02*
X33277500Y63206859D01*
X33277500Y63268609D02*
X34052500Y63268609D01*
X34052500Y63778359D02*
X33277500Y63778359D01*
X34052500Y63778359D02*
X34052500Y63583359D01*
X33277500Y63583359D01*
X33277500Y63778359D01*
X33277500Y63645109D02*
X34052500Y63645109D01*
X34052500Y63706859D02*
X33277500Y63706859D01*
X33277500Y63768609D02*
X34052500Y63768609D01*
X34052500Y64278359D02*
X33277500Y64278359D01*
X34052500Y64278359D02*
X34052500Y64083359D01*
X33277500Y64083359D01*
X33277500Y64278359D01*
X33277500Y64145109D02*
X34052500Y64145109D01*
X34052500Y64206859D02*
X33277500Y64206859D01*
X33277500Y64268609D02*
X34052500Y64268609D01*
X34052500Y64778359D02*
X33277500Y64778359D01*
X34052500Y64778359D02*
X34052500Y64583359D01*
X33277500Y64583359D01*
X33277500Y64778359D01*
X33277500Y64645109D02*
X34052500Y64645109D01*
X34052500Y64706859D02*
X33277500Y64706859D01*
X33277500Y64768609D02*
X34052500Y64768609D01*
X34052500Y65278359D02*
X33277500Y65278359D01*
X34052500Y65278359D02*
X34052500Y65083359D01*
X33277500Y65083359D01*
X33277500Y65278359D01*
X33277500Y65145109D02*
X34052500Y65145109D01*
X34052500Y65206859D02*
X33277500Y65206859D01*
X33277500Y65268609D02*
X34052500Y65268609D01*
X34052500Y65778359D02*
X33277500Y65778359D01*
X34052500Y65778359D02*
X34052500Y65583359D01*
X33277500Y65583359D01*
X33277500Y65778359D01*
X33277500Y65645109D02*
X34052500Y65645109D01*
X34052500Y65706859D02*
X33277500Y65706859D01*
X33277500Y65768609D02*
X34052500Y65768609D01*
X34052500Y66278359D02*
X33277500Y66278359D01*
X34052500Y66278359D02*
X34052500Y66083359D01*
X33277500Y66083359D01*
X33277500Y66278359D01*
X33277500Y66145109D02*
X34052500Y66145109D01*
X34052500Y66206859D02*
X33277500Y66206859D01*
X33277500Y66268609D02*
X34052500Y66268609D01*
X34052500Y66778359D02*
X33277500Y66778359D01*
X34052500Y66778359D02*
X34052500Y66583359D01*
X33277500Y66583359D01*
X33277500Y66778359D01*
X33277500Y66645109D02*
X34052500Y66645109D01*
X34052500Y66706859D02*
X33277500Y66706859D01*
X33277500Y66768609D02*
X34052500Y66768609D01*
X34052500Y67278359D02*
X33277500Y67278359D01*
X34052500Y67278359D02*
X34052500Y67083359D01*
X33277500Y67083359D01*
X33277500Y67278359D01*
X33277500Y67145109D02*
X34052500Y67145109D01*
X34052500Y67206859D02*
X33277500Y67206859D01*
X33277500Y67268609D02*
X34052500Y67268609D01*
X34052500Y67778359D02*
X33277500Y67778359D01*
X34052500Y67778359D02*
X34052500Y67583359D01*
X33277500Y67583359D01*
X33277500Y67778359D01*
X33277500Y67645109D02*
X34052500Y67645109D01*
X34052500Y67706859D02*
X33277500Y67706859D01*
X33277500Y67768609D02*
X34052500Y67768609D01*
X34052500Y68278359D02*
X33277500Y68278359D01*
X34052500Y68278359D02*
X34052500Y68083359D01*
X33277500Y68083359D01*
X33277500Y68278359D01*
X33277500Y68145109D02*
X34052500Y68145109D01*
X34052500Y68206859D02*
X33277500Y68206859D01*
X33277500Y68268609D02*
X34052500Y68268609D01*
X34052500Y68778359D02*
X33277500Y68778359D01*
X34052500Y68778359D02*
X34052500Y68583359D01*
X33277500Y68583359D01*
X33277500Y68778359D01*
X33277500Y68645109D02*
X34052500Y68645109D01*
X34052500Y68706859D02*
X33277500Y68706859D01*
X33277500Y68768609D02*
X34052500Y68768609D01*
X34052500Y69278359D02*
X33277500Y69278359D01*
X34052500Y69278359D02*
X34052500Y69083359D01*
X33277500Y69083359D01*
X33277500Y69278359D01*
X33277500Y69145109D02*
X34052500Y69145109D01*
X34052500Y69206859D02*
X33277500Y69206859D01*
X33277500Y69268609D02*
X34052500Y69268609D01*
X34052500Y69778359D02*
X33277500Y69778359D01*
X34052500Y69778359D02*
X34052500Y69583359D01*
X33277500Y69583359D01*
X33277500Y69778359D01*
X33277500Y69645109D02*
X34052500Y69645109D01*
X34052500Y69706859D02*
X33277500Y69706859D01*
X33277500Y69768609D02*
X34052500Y69768609D01*
X34252500Y69978359D02*
X34252500Y70753359D01*
X34447500Y70753359D01*
X34447500Y69978359D01*
X34252500Y69978359D01*
X34252500Y70040109D02*
X34447500Y70040109D01*
X34447500Y70101859D02*
X34252500Y70101859D01*
X34252500Y70163609D02*
X34447500Y70163609D01*
X34447500Y70225359D02*
X34252500Y70225359D01*
X34252500Y70287109D02*
X34447500Y70287109D01*
X34447500Y70348859D02*
X34252500Y70348859D01*
X34252500Y70410609D02*
X34447500Y70410609D01*
X34447500Y70472359D02*
X34252500Y70472359D01*
X34252500Y70534109D02*
X34447500Y70534109D01*
X34447500Y70595859D02*
X34252500Y70595859D01*
X34252500Y70657609D02*
X34447500Y70657609D01*
X34447500Y70719359D02*
X34252500Y70719359D01*
X34752500Y70753359D02*
X34752500Y69978359D01*
X34752500Y70753359D02*
X34947500Y70753359D01*
X34947500Y69978359D01*
X34752500Y69978359D01*
X34752500Y70040109D02*
X34947500Y70040109D01*
X34947500Y70101859D02*
X34752500Y70101859D01*
X34752500Y70163609D02*
X34947500Y70163609D01*
X34947500Y70225359D02*
X34752500Y70225359D01*
X34752500Y70287109D02*
X34947500Y70287109D01*
X34947500Y70348859D02*
X34752500Y70348859D01*
X34752500Y70410609D02*
X34947500Y70410609D01*
X34947500Y70472359D02*
X34752500Y70472359D01*
X34752500Y70534109D02*
X34947500Y70534109D01*
X34947500Y70595859D02*
X34752500Y70595859D01*
X34752500Y70657609D02*
X34947500Y70657609D01*
X34947500Y70719359D02*
X34752500Y70719359D01*
X35252500Y70753359D02*
X35252500Y69978359D01*
X35252500Y70753359D02*
X35447500Y70753359D01*
X35447500Y69978359D01*
X35252500Y69978359D01*
X35252500Y70040109D02*
X35447500Y70040109D01*
X35447500Y70101859D02*
X35252500Y70101859D01*
X35252500Y70163609D02*
X35447500Y70163609D01*
X35447500Y70225359D02*
X35252500Y70225359D01*
X35252500Y70287109D02*
X35447500Y70287109D01*
X35447500Y70348859D02*
X35252500Y70348859D01*
X35252500Y70410609D02*
X35447500Y70410609D01*
X35447500Y70472359D02*
X35252500Y70472359D01*
X35252500Y70534109D02*
X35447500Y70534109D01*
X35447500Y70595859D02*
X35252500Y70595859D01*
X35252500Y70657609D02*
X35447500Y70657609D01*
X35447500Y70719359D02*
X35252500Y70719359D01*
X35752500Y70753359D02*
X35752500Y69978359D01*
X35752500Y70753359D02*
X35947500Y70753359D01*
X35947500Y69978359D01*
X35752500Y69978359D01*
X35752500Y70040109D02*
X35947500Y70040109D01*
X35947500Y70101859D02*
X35752500Y70101859D01*
X35752500Y70163609D02*
X35947500Y70163609D01*
X35947500Y70225359D02*
X35752500Y70225359D01*
X35752500Y70287109D02*
X35947500Y70287109D01*
X35947500Y70348859D02*
X35752500Y70348859D01*
X35752500Y70410609D02*
X35947500Y70410609D01*
X35947500Y70472359D02*
X35752500Y70472359D01*
X35752500Y70534109D02*
X35947500Y70534109D01*
X35947500Y70595859D02*
X35752500Y70595859D01*
X35752500Y70657609D02*
X35947500Y70657609D01*
X35947500Y70719359D02*
X35752500Y70719359D01*
X36252500Y70753359D02*
X36252500Y69978359D01*
X36252500Y70753359D02*
X36447500Y70753359D01*
X36447500Y69978359D01*
X36252500Y69978359D01*
X36252500Y70040109D02*
X36447500Y70040109D01*
X36447500Y70101859D02*
X36252500Y70101859D01*
X36252500Y70163609D02*
X36447500Y70163609D01*
X36447500Y70225359D02*
X36252500Y70225359D01*
X36252500Y70287109D02*
X36447500Y70287109D01*
X36447500Y70348859D02*
X36252500Y70348859D01*
X36252500Y70410609D02*
X36447500Y70410609D01*
X36447500Y70472359D02*
X36252500Y70472359D01*
X36252500Y70534109D02*
X36447500Y70534109D01*
X36447500Y70595859D02*
X36252500Y70595859D01*
X36252500Y70657609D02*
X36447500Y70657609D01*
X36447500Y70719359D02*
X36252500Y70719359D01*
X36752500Y70753359D02*
X36752500Y69978359D01*
X36752500Y70753359D02*
X36947500Y70753359D01*
X36947500Y69978359D01*
X36752500Y69978359D01*
X36752500Y70040109D02*
X36947500Y70040109D01*
X36947500Y70101859D02*
X36752500Y70101859D01*
X36752500Y70163609D02*
X36947500Y70163609D01*
X36947500Y70225359D02*
X36752500Y70225359D01*
X36752500Y70287109D02*
X36947500Y70287109D01*
X36947500Y70348859D02*
X36752500Y70348859D01*
X36752500Y70410609D02*
X36947500Y70410609D01*
X36947500Y70472359D02*
X36752500Y70472359D01*
X36752500Y70534109D02*
X36947500Y70534109D01*
X36947500Y70595859D02*
X36752500Y70595859D01*
X36752500Y70657609D02*
X36947500Y70657609D01*
X36947500Y70719359D02*
X36752500Y70719359D01*
X37252500Y70753359D02*
X37252500Y69978359D01*
X37252500Y70753359D02*
X37447500Y70753359D01*
X37447500Y69978359D01*
X37252500Y69978359D01*
X37252500Y70040109D02*
X37447500Y70040109D01*
X37447500Y70101859D02*
X37252500Y70101859D01*
X37252500Y70163609D02*
X37447500Y70163609D01*
X37447500Y70225359D02*
X37252500Y70225359D01*
X37252500Y70287109D02*
X37447500Y70287109D01*
X37447500Y70348859D02*
X37252500Y70348859D01*
X37252500Y70410609D02*
X37447500Y70410609D01*
X37447500Y70472359D02*
X37252500Y70472359D01*
X37252500Y70534109D02*
X37447500Y70534109D01*
X37447500Y70595859D02*
X37252500Y70595859D01*
X37252500Y70657609D02*
X37447500Y70657609D01*
X37447500Y70719359D02*
X37252500Y70719359D01*
X37752500Y70753359D02*
X37752500Y69978359D01*
X37752500Y70753359D02*
X37947500Y70753359D01*
X37947500Y69978359D01*
X37752500Y69978359D01*
X37752500Y70040109D02*
X37947500Y70040109D01*
X37947500Y70101859D02*
X37752500Y70101859D01*
X37752500Y70163609D02*
X37947500Y70163609D01*
X37947500Y70225359D02*
X37752500Y70225359D01*
X37752500Y70287109D02*
X37947500Y70287109D01*
X37947500Y70348859D02*
X37752500Y70348859D01*
X37752500Y70410609D02*
X37947500Y70410609D01*
X37947500Y70472359D02*
X37752500Y70472359D01*
X37752500Y70534109D02*
X37947500Y70534109D01*
X37947500Y70595859D02*
X37752500Y70595859D01*
X37752500Y70657609D02*
X37947500Y70657609D01*
X37947500Y70719359D02*
X37752500Y70719359D01*
X38252500Y70753359D02*
X38252500Y69978359D01*
X38252500Y70753359D02*
X38447500Y70753359D01*
X38447500Y69978359D01*
X38252500Y69978359D01*
X38252500Y70040109D02*
X38447500Y70040109D01*
X38447500Y70101859D02*
X38252500Y70101859D01*
X38252500Y70163609D02*
X38447500Y70163609D01*
X38447500Y70225359D02*
X38252500Y70225359D01*
X38252500Y70287109D02*
X38447500Y70287109D01*
X38447500Y70348859D02*
X38252500Y70348859D01*
X38252500Y70410609D02*
X38447500Y70410609D01*
X38447500Y70472359D02*
X38252500Y70472359D01*
X38252500Y70534109D02*
X38447500Y70534109D01*
X38447500Y70595859D02*
X38252500Y70595859D01*
X38252500Y70657609D02*
X38447500Y70657609D01*
X38447500Y70719359D02*
X38252500Y70719359D01*
X38752500Y70753359D02*
X38752500Y69978359D01*
X38752500Y70753359D02*
X38947500Y70753359D01*
X38947500Y69978359D01*
X38752500Y69978359D01*
X38752500Y70040109D02*
X38947500Y70040109D01*
X38947500Y70101859D02*
X38752500Y70101859D01*
X38752500Y70163609D02*
X38947500Y70163609D01*
X38947500Y70225359D02*
X38752500Y70225359D01*
X38752500Y70287109D02*
X38947500Y70287109D01*
X38947500Y70348859D02*
X38752500Y70348859D01*
X38752500Y70410609D02*
X38947500Y70410609D01*
X38947500Y70472359D02*
X38752500Y70472359D01*
X38752500Y70534109D02*
X38947500Y70534109D01*
X38947500Y70595859D02*
X38752500Y70595859D01*
X38752500Y70657609D02*
X38947500Y70657609D01*
X38947500Y70719359D02*
X38752500Y70719359D01*
X39252500Y70753359D02*
X39252500Y69978359D01*
X39252500Y70753359D02*
X39447500Y70753359D01*
X39447500Y69978359D01*
X39252500Y69978359D01*
X39252500Y70040109D02*
X39447500Y70040109D01*
X39447500Y70101859D02*
X39252500Y70101859D01*
X39252500Y70163609D02*
X39447500Y70163609D01*
X39447500Y70225359D02*
X39252500Y70225359D01*
X39252500Y70287109D02*
X39447500Y70287109D01*
X39447500Y70348859D02*
X39252500Y70348859D01*
X39252500Y70410609D02*
X39447500Y70410609D01*
X39447500Y70472359D02*
X39252500Y70472359D01*
X39252500Y70534109D02*
X39447500Y70534109D01*
X39447500Y70595859D02*
X39252500Y70595859D01*
X39252500Y70657609D02*
X39447500Y70657609D01*
X39447500Y70719359D02*
X39252500Y70719359D01*
X39752500Y70753359D02*
X39752500Y69978359D01*
X39752500Y70753359D02*
X39947500Y70753359D01*
X39947500Y69978359D01*
X39752500Y69978359D01*
X39752500Y70040109D02*
X39947500Y70040109D01*
X39947500Y70101859D02*
X39752500Y70101859D01*
X39752500Y70163609D02*
X39947500Y70163609D01*
X39947500Y70225359D02*
X39752500Y70225359D01*
X39752500Y70287109D02*
X39947500Y70287109D01*
X39947500Y70348859D02*
X39752500Y70348859D01*
X39752500Y70410609D02*
X39947500Y70410609D01*
X39947500Y70472359D02*
X39752500Y70472359D01*
X39752500Y70534109D02*
X39947500Y70534109D01*
X39947500Y70595859D02*
X39752500Y70595859D01*
X39752500Y70657609D02*
X39947500Y70657609D01*
X39947500Y70719359D02*
X39752500Y70719359D01*
X40252500Y70753359D02*
X40252500Y69978359D01*
X40252500Y70753359D02*
X40447500Y70753359D01*
X40447500Y69978359D01*
X40252500Y69978359D01*
X40252500Y70040109D02*
X40447500Y70040109D01*
X40447500Y70101859D02*
X40252500Y70101859D01*
X40252500Y70163609D02*
X40447500Y70163609D01*
X40447500Y70225359D02*
X40252500Y70225359D01*
X40252500Y70287109D02*
X40447500Y70287109D01*
X40447500Y70348859D02*
X40252500Y70348859D01*
X40252500Y70410609D02*
X40447500Y70410609D01*
X40447500Y70472359D02*
X40252500Y70472359D01*
X40252500Y70534109D02*
X40447500Y70534109D01*
X40447500Y70595859D02*
X40252500Y70595859D01*
X40252500Y70657609D02*
X40447500Y70657609D01*
X40447500Y70719359D02*
X40252500Y70719359D01*
X40752500Y70753359D02*
X40752500Y69978359D01*
X40752500Y70753359D02*
X40947500Y70753359D01*
X40947500Y69978359D01*
X40752500Y69978359D01*
X40752500Y70040109D02*
X40947500Y70040109D01*
X40947500Y70101859D02*
X40752500Y70101859D01*
X40752500Y70163609D02*
X40947500Y70163609D01*
X40947500Y70225359D02*
X40752500Y70225359D01*
X40752500Y70287109D02*
X40947500Y70287109D01*
X40947500Y70348859D02*
X40752500Y70348859D01*
X40752500Y70410609D02*
X40947500Y70410609D01*
X40947500Y70472359D02*
X40752500Y70472359D01*
X40752500Y70534109D02*
X40947500Y70534109D01*
X40947500Y70595859D02*
X40752500Y70595859D01*
X40752500Y70657609D02*
X40947500Y70657609D01*
X40947500Y70719359D02*
X40752500Y70719359D01*
X41252500Y70753359D02*
X41252500Y69978359D01*
X41252500Y70753359D02*
X41447500Y70753359D01*
X41447500Y69978359D01*
X41252500Y69978359D01*
X41252500Y70040109D02*
X41447500Y70040109D01*
X41447500Y70101859D02*
X41252500Y70101859D01*
X41252500Y70163609D02*
X41447500Y70163609D01*
X41447500Y70225359D02*
X41252500Y70225359D01*
X41252500Y70287109D02*
X41447500Y70287109D01*
X41447500Y70348859D02*
X41252500Y70348859D01*
X41252500Y70410609D02*
X41447500Y70410609D01*
X41447500Y70472359D02*
X41252500Y70472359D01*
X41252500Y70534109D02*
X41447500Y70534109D01*
X41447500Y70595859D02*
X41252500Y70595859D01*
X41252500Y70657609D02*
X41447500Y70657609D01*
X41447500Y70719359D02*
X41252500Y70719359D01*
X41752500Y70753359D02*
X41752500Y69978359D01*
X41752500Y70753359D02*
X41947500Y70753359D01*
X41947500Y69978359D01*
X41752500Y69978359D01*
X41752500Y70040109D02*
X41947500Y70040109D01*
X41947500Y70101859D02*
X41752500Y70101859D01*
X41752500Y70163609D02*
X41947500Y70163609D01*
X41947500Y70225359D02*
X41752500Y70225359D01*
X41752500Y70287109D02*
X41947500Y70287109D01*
X41947500Y70348859D02*
X41752500Y70348859D01*
X41752500Y70410609D02*
X41947500Y70410609D01*
X41947500Y70472359D02*
X41752500Y70472359D01*
X41752500Y70534109D02*
X41947500Y70534109D01*
X41947500Y70595859D02*
X41752500Y70595859D01*
X41752500Y70657609D02*
X41947500Y70657609D01*
X41947500Y70719359D02*
X41752500Y70719359D01*
X41752500Y61883359D02*
X41752500Y61108359D01*
X41752500Y61883359D02*
X41947500Y61883359D01*
X41947500Y61108359D01*
X41752500Y61108359D01*
X41752500Y61170109D02*
X41947500Y61170109D01*
X41947500Y61231859D02*
X41752500Y61231859D01*
X41752500Y61293609D02*
X41947500Y61293609D01*
X41947500Y61355359D02*
X41752500Y61355359D01*
X41752500Y61417109D02*
X41947500Y61417109D01*
X41947500Y61478859D02*
X41752500Y61478859D01*
X41752500Y61540609D02*
X41947500Y61540609D01*
X41947500Y61602359D02*
X41752500Y61602359D01*
X41752500Y61664109D02*
X41947500Y61664109D01*
X41947500Y61725859D02*
X41752500Y61725859D01*
X41752500Y61787609D02*
X41947500Y61787609D01*
X41947500Y61849359D02*
X41752500Y61849359D01*
X41252500Y61883359D02*
X41252500Y61108359D01*
X41252500Y61883359D02*
X41447500Y61883359D01*
X41447500Y61108359D01*
X41252500Y61108359D01*
X41252500Y61170109D02*
X41447500Y61170109D01*
X41447500Y61231859D02*
X41252500Y61231859D01*
X41252500Y61293609D02*
X41447500Y61293609D01*
X41447500Y61355359D02*
X41252500Y61355359D01*
X41252500Y61417109D02*
X41447500Y61417109D01*
X41447500Y61478859D02*
X41252500Y61478859D01*
X41252500Y61540609D02*
X41447500Y61540609D01*
X41447500Y61602359D02*
X41252500Y61602359D01*
X41252500Y61664109D02*
X41447500Y61664109D01*
X41447500Y61725859D02*
X41252500Y61725859D01*
X41252500Y61787609D02*
X41447500Y61787609D01*
X41447500Y61849359D02*
X41252500Y61849359D01*
X40752500Y61883359D02*
X40752500Y61108359D01*
X40752500Y61883359D02*
X40947500Y61883359D01*
X40947500Y61108359D01*
X40752500Y61108359D01*
X40752500Y61170109D02*
X40947500Y61170109D01*
X40947500Y61231859D02*
X40752500Y61231859D01*
X40752500Y61293609D02*
X40947500Y61293609D01*
X40947500Y61355359D02*
X40752500Y61355359D01*
X40752500Y61417109D02*
X40947500Y61417109D01*
X40947500Y61478859D02*
X40752500Y61478859D01*
X40752500Y61540609D02*
X40947500Y61540609D01*
X40947500Y61602359D02*
X40752500Y61602359D01*
X40752500Y61664109D02*
X40947500Y61664109D01*
X40947500Y61725859D02*
X40752500Y61725859D01*
X40752500Y61787609D02*
X40947500Y61787609D01*
X40947500Y61849359D02*
X40752500Y61849359D01*
X40252500Y61883359D02*
X40252500Y61108359D01*
X40252500Y61883359D02*
X40447500Y61883359D01*
X40447500Y61108359D01*
X40252500Y61108359D01*
X40252500Y61170109D02*
X40447500Y61170109D01*
X40447500Y61231859D02*
X40252500Y61231859D01*
X40252500Y61293609D02*
X40447500Y61293609D01*
X40447500Y61355359D02*
X40252500Y61355359D01*
X40252500Y61417109D02*
X40447500Y61417109D01*
X40447500Y61478859D02*
X40252500Y61478859D01*
X40252500Y61540609D02*
X40447500Y61540609D01*
X40447500Y61602359D02*
X40252500Y61602359D01*
X40252500Y61664109D02*
X40447500Y61664109D01*
X40447500Y61725859D02*
X40252500Y61725859D01*
X40252500Y61787609D02*
X40447500Y61787609D01*
X40447500Y61849359D02*
X40252500Y61849359D01*
X39752500Y61883359D02*
X39752500Y61108359D01*
X39752500Y61883359D02*
X39947500Y61883359D01*
X39947500Y61108359D01*
X39752500Y61108359D01*
X39752500Y61170109D02*
X39947500Y61170109D01*
X39947500Y61231859D02*
X39752500Y61231859D01*
X39752500Y61293609D02*
X39947500Y61293609D01*
X39947500Y61355359D02*
X39752500Y61355359D01*
X39752500Y61417109D02*
X39947500Y61417109D01*
X39947500Y61478859D02*
X39752500Y61478859D01*
X39752500Y61540609D02*
X39947500Y61540609D01*
X39947500Y61602359D02*
X39752500Y61602359D01*
X39752500Y61664109D02*
X39947500Y61664109D01*
X39947500Y61725859D02*
X39752500Y61725859D01*
X39752500Y61787609D02*
X39947500Y61787609D01*
X39947500Y61849359D02*
X39752500Y61849359D01*
X39252500Y61883359D02*
X39252500Y61108359D01*
X39252500Y61883359D02*
X39447500Y61883359D01*
X39447500Y61108359D01*
X39252500Y61108359D01*
X39252500Y61170109D02*
X39447500Y61170109D01*
X39447500Y61231859D02*
X39252500Y61231859D01*
X39252500Y61293609D02*
X39447500Y61293609D01*
X39447500Y61355359D02*
X39252500Y61355359D01*
X39252500Y61417109D02*
X39447500Y61417109D01*
X39447500Y61478859D02*
X39252500Y61478859D01*
X39252500Y61540609D02*
X39447500Y61540609D01*
X39447500Y61602359D02*
X39252500Y61602359D01*
X39252500Y61664109D02*
X39447500Y61664109D01*
X39447500Y61725859D02*
X39252500Y61725859D01*
X39252500Y61787609D02*
X39447500Y61787609D01*
X39447500Y61849359D02*
X39252500Y61849359D01*
X38752500Y61883359D02*
X38752500Y61108359D01*
X38752500Y61883359D02*
X38947500Y61883359D01*
X38947500Y61108359D01*
X38752500Y61108359D01*
X38752500Y61170109D02*
X38947500Y61170109D01*
X38947500Y61231859D02*
X38752500Y61231859D01*
X38752500Y61293609D02*
X38947500Y61293609D01*
X38947500Y61355359D02*
X38752500Y61355359D01*
X38752500Y61417109D02*
X38947500Y61417109D01*
X38947500Y61478859D02*
X38752500Y61478859D01*
X38752500Y61540609D02*
X38947500Y61540609D01*
X38947500Y61602359D02*
X38752500Y61602359D01*
X38752500Y61664109D02*
X38947500Y61664109D01*
X38947500Y61725859D02*
X38752500Y61725859D01*
X38752500Y61787609D02*
X38947500Y61787609D01*
X38947500Y61849359D02*
X38752500Y61849359D01*
X38252500Y61883359D02*
X38252500Y61108359D01*
X38252500Y61883359D02*
X38447500Y61883359D01*
X38447500Y61108359D01*
X38252500Y61108359D01*
X38252500Y61170109D02*
X38447500Y61170109D01*
X38447500Y61231859D02*
X38252500Y61231859D01*
X38252500Y61293609D02*
X38447500Y61293609D01*
X38447500Y61355359D02*
X38252500Y61355359D01*
X38252500Y61417109D02*
X38447500Y61417109D01*
X38447500Y61478859D02*
X38252500Y61478859D01*
X38252500Y61540609D02*
X38447500Y61540609D01*
X38447500Y61602359D02*
X38252500Y61602359D01*
X38252500Y61664109D02*
X38447500Y61664109D01*
X38447500Y61725859D02*
X38252500Y61725859D01*
X38252500Y61787609D02*
X38447500Y61787609D01*
X38447500Y61849359D02*
X38252500Y61849359D01*
X37752500Y61883359D02*
X37752500Y61108359D01*
X37752500Y61883359D02*
X37947500Y61883359D01*
X37947500Y61108359D01*
X37752500Y61108359D01*
X37752500Y61170109D02*
X37947500Y61170109D01*
X37947500Y61231859D02*
X37752500Y61231859D01*
X37752500Y61293609D02*
X37947500Y61293609D01*
X37947500Y61355359D02*
X37752500Y61355359D01*
X37752500Y61417109D02*
X37947500Y61417109D01*
X37947500Y61478859D02*
X37752500Y61478859D01*
X37752500Y61540609D02*
X37947500Y61540609D01*
X37947500Y61602359D02*
X37752500Y61602359D01*
X37752500Y61664109D02*
X37947500Y61664109D01*
X37947500Y61725859D02*
X37752500Y61725859D01*
X37752500Y61787609D02*
X37947500Y61787609D01*
X37947500Y61849359D02*
X37752500Y61849359D01*
X37252500Y61883359D02*
X37252500Y61108359D01*
X37252500Y61883359D02*
X37447500Y61883359D01*
X37447500Y61108359D01*
X37252500Y61108359D01*
X37252500Y61170109D02*
X37447500Y61170109D01*
X37447500Y61231859D02*
X37252500Y61231859D01*
X37252500Y61293609D02*
X37447500Y61293609D01*
X37447500Y61355359D02*
X37252500Y61355359D01*
X37252500Y61417109D02*
X37447500Y61417109D01*
X37447500Y61478859D02*
X37252500Y61478859D01*
X37252500Y61540609D02*
X37447500Y61540609D01*
X37447500Y61602359D02*
X37252500Y61602359D01*
X37252500Y61664109D02*
X37447500Y61664109D01*
X37447500Y61725859D02*
X37252500Y61725859D01*
X37252500Y61787609D02*
X37447500Y61787609D01*
X37447500Y61849359D02*
X37252500Y61849359D01*
X36752500Y61883359D02*
X36752500Y61108359D01*
X36752500Y61883359D02*
X36947500Y61883359D01*
X36947500Y61108359D01*
X36752500Y61108359D01*
X36752500Y61170109D02*
X36947500Y61170109D01*
X36947500Y61231859D02*
X36752500Y61231859D01*
X36752500Y61293609D02*
X36947500Y61293609D01*
X36947500Y61355359D02*
X36752500Y61355359D01*
X36752500Y61417109D02*
X36947500Y61417109D01*
X36947500Y61478859D02*
X36752500Y61478859D01*
X36752500Y61540609D02*
X36947500Y61540609D01*
X36947500Y61602359D02*
X36752500Y61602359D01*
X36752500Y61664109D02*
X36947500Y61664109D01*
X36947500Y61725859D02*
X36752500Y61725859D01*
X36752500Y61787609D02*
X36947500Y61787609D01*
X36947500Y61849359D02*
X36752500Y61849359D01*
X36252500Y61883359D02*
X36252500Y61108359D01*
X36252500Y61883359D02*
X36447500Y61883359D01*
X36447500Y61108359D01*
X36252500Y61108359D01*
X36252500Y61170109D02*
X36447500Y61170109D01*
X36447500Y61231859D02*
X36252500Y61231859D01*
X36252500Y61293609D02*
X36447500Y61293609D01*
X36447500Y61355359D02*
X36252500Y61355359D01*
X36252500Y61417109D02*
X36447500Y61417109D01*
X36447500Y61478859D02*
X36252500Y61478859D01*
X36252500Y61540609D02*
X36447500Y61540609D01*
X36447500Y61602359D02*
X36252500Y61602359D01*
X36252500Y61664109D02*
X36447500Y61664109D01*
X36447500Y61725859D02*
X36252500Y61725859D01*
X36252500Y61787609D02*
X36447500Y61787609D01*
X36447500Y61849359D02*
X36252500Y61849359D01*
X35752500Y61883359D02*
X35752500Y61108359D01*
X35752500Y61883359D02*
X35947500Y61883359D01*
X35947500Y61108359D01*
X35752500Y61108359D01*
X35752500Y61170109D02*
X35947500Y61170109D01*
X35947500Y61231859D02*
X35752500Y61231859D01*
X35752500Y61293609D02*
X35947500Y61293609D01*
X35947500Y61355359D02*
X35752500Y61355359D01*
X35752500Y61417109D02*
X35947500Y61417109D01*
X35947500Y61478859D02*
X35752500Y61478859D01*
X35752500Y61540609D02*
X35947500Y61540609D01*
X35947500Y61602359D02*
X35752500Y61602359D01*
X35752500Y61664109D02*
X35947500Y61664109D01*
X35947500Y61725859D02*
X35752500Y61725859D01*
X35752500Y61787609D02*
X35947500Y61787609D01*
X35947500Y61849359D02*
X35752500Y61849359D01*
X35252500Y61883359D02*
X35252500Y61108359D01*
X35252500Y61883359D02*
X35447500Y61883359D01*
X35447500Y61108359D01*
X35252500Y61108359D01*
X35252500Y61170109D02*
X35447500Y61170109D01*
X35447500Y61231859D02*
X35252500Y61231859D01*
X35252500Y61293609D02*
X35447500Y61293609D01*
X35447500Y61355359D02*
X35252500Y61355359D01*
X35252500Y61417109D02*
X35447500Y61417109D01*
X35447500Y61478859D02*
X35252500Y61478859D01*
X35252500Y61540609D02*
X35447500Y61540609D01*
X35447500Y61602359D02*
X35252500Y61602359D01*
X35252500Y61664109D02*
X35447500Y61664109D01*
X35447500Y61725859D02*
X35252500Y61725859D01*
X35252500Y61787609D02*
X35447500Y61787609D01*
X35447500Y61849359D02*
X35252500Y61849359D01*
X34752500Y61883359D02*
X34752500Y61108359D01*
X34752500Y61883359D02*
X34947500Y61883359D01*
X34947500Y61108359D01*
X34752500Y61108359D01*
X34752500Y61170109D02*
X34947500Y61170109D01*
X34947500Y61231859D02*
X34752500Y61231859D01*
X34752500Y61293609D02*
X34947500Y61293609D01*
X34947500Y61355359D02*
X34752500Y61355359D01*
X34752500Y61417109D02*
X34947500Y61417109D01*
X34947500Y61478859D02*
X34752500Y61478859D01*
X34752500Y61540609D02*
X34947500Y61540609D01*
X34947500Y61602359D02*
X34752500Y61602359D01*
X34752500Y61664109D02*
X34947500Y61664109D01*
X34947500Y61725859D02*
X34752500Y61725859D01*
X34752500Y61787609D02*
X34947500Y61787609D01*
X34947500Y61849359D02*
X34752500Y61849359D01*
X34252500Y61883359D02*
X34252500Y61108359D01*
X34252500Y61883359D02*
X34447500Y61883359D01*
X34447500Y61108359D01*
X34252500Y61108359D01*
X34252500Y61170109D02*
X34447500Y61170109D01*
X34447500Y61231859D02*
X34252500Y61231859D01*
X34252500Y61293609D02*
X34447500Y61293609D01*
X34447500Y61355359D02*
X34252500Y61355359D01*
X34252500Y61417109D02*
X34447500Y61417109D01*
X34447500Y61478859D02*
X34252500Y61478859D01*
X34252500Y61540609D02*
X34447500Y61540609D01*
X34447500Y61602359D02*
X34252500Y61602359D01*
X34252500Y61664109D02*
X34447500Y61664109D01*
X34447500Y61725859D02*
X34252500Y61725859D01*
X34252500Y61787609D02*
X34447500Y61787609D01*
X34447500Y61849359D02*
X34252500Y61849359D01*
D20*
X38302344Y60275391D03*
X37302344Y60275391D03*
X33432813Y72925781D03*
X34432813Y72925781D03*
X33432813Y71883984D03*
X34432813Y71883984D03*
D16*
X19925000Y98524219D03*
X18175000Y98524219D03*
X25095509Y79027738D03*
X26845509Y79027738D03*
X23235156Y59977734D03*
X24985156Y59977734D03*
D15*
X27458788Y24053713D03*
X27458788Y25803713D03*
X51122459Y24053709D03*
X51122459Y25803709D03*
D16*
X58471484Y41076563D03*
X56721484Y41076563D03*
D15*
X56108203Y62153713D03*
X56108203Y63903713D03*
X51494531Y81426953D03*
X51494531Y83176953D03*
X42862500Y100179297D03*
X42862500Y101929297D03*
X60870703Y100179297D03*
X60870703Y101929297D03*
X70098047Y81426953D03*
X70098047Y83176953D03*
X74711719Y62228125D03*
X74711719Y63978125D03*
X85129688Y43178125D03*
X85129688Y44928125D03*
X72925781Y24128125D03*
X72925781Y25878125D03*
X104030859Y42880469D03*
X104030859Y44630469D03*
D16*
X91808984Y60126563D03*
X90058984Y60126563D03*
D15*
X89296875Y81278125D03*
X89296875Y83028125D03*
X79920703Y100179297D03*
X79920703Y101929297D03*
X98970703Y100179297D03*
X98970703Y101929297D03*
X108793359Y81426953D03*
X108793359Y83176953D03*
X113853516Y62376953D03*
X113853516Y64126953D03*
X123229688Y43178125D03*
X123229688Y44928125D03*
X144512109Y24128125D03*
X144512109Y25878125D03*
X142428516Y43178125D03*
X142428516Y44928125D03*
X132903516Y62079297D03*
X132903516Y63829297D03*
X127843359Y81278125D03*
X127843359Y83028125D03*
X118020703Y100179297D03*
X118020703Y101929297D03*
X137070703Y100179297D03*
X137070703Y101929297D03*
X147042188Y81278125D03*
X147042188Y83028125D03*
X151953516Y62228125D03*
X151953516Y63978125D03*
X161478516Y43178125D03*
X161478516Y44928125D03*
X180528516Y43178125D03*
X180528516Y44928125D03*
X171003516Y62228125D03*
X171003516Y63978125D03*
X165943359Y81278125D03*
X165943359Y83028125D03*
X156120703Y100179297D03*
X156120703Y101929297D03*
X175170703Y100179297D03*
X175170703Y101929297D03*
X184993359Y81278125D03*
X184993359Y83028125D03*
X190053516Y62376953D03*
X190053516Y64126953D03*
X199578516Y43178125D03*
X199578516Y44928125D03*
X216396094Y24128125D03*
X216396094Y25878125D03*
X218926172Y43029297D03*
X218926172Y44779297D03*
X209103516Y62228125D03*
X209103516Y63978125D03*
X204043359Y81426953D03*
X204043359Y83176953D03*
X194220703Y100179297D03*
X194220703Y101929297D03*
X213270703Y100328125D03*
X213270703Y102078125D03*
X223093359Y81278125D03*
X223093359Y83028125D03*
X228153516Y62228125D03*
X228153516Y63978125D03*
X236934375Y43178125D03*
X236934375Y44928125D03*
X239762109Y24128125D03*
X239762109Y25878125D03*
X263128125Y23383984D03*
X263128125Y25133984D03*
X252114844Y43178125D03*
X252114844Y44928125D03*
X247203516Y62228125D03*
X247203516Y63978125D03*
X242143359Y81278125D03*
X242143359Y83028125D03*
X232320703Y100328125D03*
X232320703Y102078125D03*
X251370703Y100179297D03*
X251370703Y101929297D03*
X261193359Y81129297D03*
X261193359Y82879297D03*
X278308594Y62228125D03*
X278308594Y63978125D03*
X273694922Y43029297D03*
X273694922Y44779297D03*
X270718359Y24128125D03*
X270718359Y25878125D03*
X290214844Y24276953D03*
X290214844Y26026953D03*
X289768359Y42582813D03*
X289768359Y44332813D03*
X284857031Y81278125D03*
X284857031Y83028125D03*
X280094531Y100179297D03*
X280094531Y101929297D03*
X35272266Y43178125D03*
X35272266Y44928125D03*
D24*
X91396675Y79920703D03*
X93596675Y78970703D03*
X93596675Y80870703D03*
D16*
X85147656Y84683203D03*
X86897656Y84683203D03*
D25*
X100542188Y61101953D02*
X100542188Y59641953D01*
X100242188Y59641953D01*
X100242188Y61101953D01*
X100542188Y61101953D01*
X100542188Y59736953D02*
X100242188Y59736953D01*
X100242188Y59831953D02*
X100542188Y59831953D01*
X100542188Y59926953D02*
X100242188Y59926953D01*
X100242188Y60021953D02*
X100542188Y60021953D01*
X100542188Y60116953D02*
X100242188Y60116953D01*
X100242188Y60211953D02*
X100542188Y60211953D01*
X100542188Y60306953D02*
X100242188Y60306953D01*
X100242188Y60401953D02*
X100542188Y60401953D01*
X100542188Y60496953D02*
X100242188Y60496953D01*
X100242188Y60591953D02*
X100542188Y60591953D01*
X100542188Y60686953D02*
X100242188Y60686953D01*
X100242188Y60781953D02*
X100542188Y60781953D01*
X100542188Y60876953D02*
X100242188Y60876953D01*
X100242188Y60971953D02*
X100542188Y60971953D01*
X100542188Y61066953D02*
X100242188Y61066953D01*
X99892188Y61101953D02*
X99892188Y59641953D01*
X99592188Y59641953D01*
X99592188Y61101953D01*
X99892188Y61101953D01*
X99892188Y59736953D02*
X99592188Y59736953D01*
X99592188Y59831953D02*
X99892188Y59831953D01*
X99892188Y59926953D02*
X99592188Y59926953D01*
X99592188Y60021953D02*
X99892188Y60021953D01*
X99892188Y60116953D02*
X99592188Y60116953D01*
X99592188Y60211953D02*
X99892188Y60211953D01*
X99892188Y60306953D02*
X99592188Y60306953D01*
X99592188Y60401953D02*
X99892188Y60401953D01*
X99892188Y60496953D02*
X99592188Y60496953D01*
X99592188Y60591953D02*
X99892188Y60591953D01*
X99892188Y60686953D02*
X99592188Y60686953D01*
X99592188Y60781953D02*
X99892188Y60781953D01*
X99892188Y60876953D02*
X99592188Y60876953D01*
X99592188Y60971953D02*
X99892188Y60971953D01*
X99892188Y61066953D02*
X99592188Y61066953D01*
X99242188Y61101953D02*
X99242188Y59641953D01*
X98942188Y59641953D01*
X98942188Y61101953D01*
X99242188Y61101953D01*
X99242188Y59736953D02*
X98942188Y59736953D01*
X98942188Y59831953D02*
X99242188Y59831953D01*
X99242188Y59926953D02*
X98942188Y59926953D01*
X98942188Y60021953D02*
X99242188Y60021953D01*
X99242188Y60116953D02*
X98942188Y60116953D01*
X98942188Y60211953D02*
X99242188Y60211953D01*
X99242188Y60306953D02*
X98942188Y60306953D01*
X98942188Y60401953D02*
X99242188Y60401953D01*
X99242188Y60496953D02*
X98942188Y60496953D01*
X98942188Y60591953D02*
X99242188Y60591953D01*
X99242188Y60686953D02*
X98942188Y60686953D01*
X98942188Y60781953D02*
X99242188Y60781953D01*
X99242188Y60876953D02*
X98942188Y60876953D01*
X98942188Y60971953D02*
X99242188Y60971953D01*
X99242188Y61066953D02*
X98942188Y61066953D01*
X98592188Y61101953D02*
X98592188Y59641953D01*
X98292188Y59641953D01*
X98292188Y61101953D01*
X98592188Y61101953D01*
X98592188Y59736953D02*
X98292188Y59736953D01*
X98292188Y59831953D02*
X98592188Y59831953D01*
X98592188Y59926953D02*
X98292188Y59926953D01*
X98292188Y60021953D02*
X98592188Y60021953D01*
X98592188Y60116953D02*
X98292188Y60116953D01*
X98292188Y60211953D02*
X98592188Y60211953D01*
X98592188Y60306953D02*
X98292188Y60306953D01*
X98292188Y60401953D02*
X98592188Y60401953D01*
X98592188Y60496953D02*
X98292188Y60496953D01*
X98292188Y60591953D02*
X98592188Y60591953D01*
X98592188Y60686953D02*
X98292188Y60686953D01*
X98292188Y60781953D02*
X98592188Y60781953D01*
X98592188Y60876953D02*
X98292188Y60876953D01*
X98292188Y60971953D02*
X98592188Y60971953D01*
X98592188Y61066953D02*
X98292188Y61066953D01*
X98592188Y65401953D02*
X98592188Y66861953D01*
X98592188Y65401953D02*
X98292188Y65401953D01*
X98292188Y66861953D01*
X98592188Y66861953D01*
X98592188Y65496953D02*
X98292188Y65496953D01*
X98292188Y65591953D02*
X98592188Y65591953D01*
X98592188Y65686953D02*
X98292188Y65686953D01*
X98292188Y65781953D02*
X98592188Y65781953D01*
X98592188Y65876953D02*
X98292188Y65876953D01*
X98292188Y65971953D02*
X98592188Y65971953D01*
X98592188Y66066953D02*
X98292188Y66066953D01*
X98292188Y66161953D02*
X98592188Y66161953D01*
X98592188Y66256953D02*
X98292188Y66256953D01*
X98292188Y66351953D02*
X98592188Y66351953D01*
X98592188Y66446953D02*
X98292188Y66446953D01*
X98292188Y66541953D02*
X98592188Y66541953D01*
X98592188Y66636953D02*
X98292188Y66636953D01*
X98292188Y66731953D02*
X98592188Y66731953D01*
X98592188Y66826953D02*
X98292188Y66826953D01*
X99242188Y66861953D02*
X99242188Y65401953D01*
X98942188Y65401953D01*
X98942188Y66861953D01*
X99242188Y66861953D01*
X99242188Y65496953D02*
X98942188Y65496953D01*
X98942188Y65591953D02*
X99242188Y65591953D01*
X99242188Y65686953D02*
X98942188Y65686953D01*
X98942188Y65781953D02*
X99242188Y65781953D01*
X99242188Y65876953D02*
X98942188Y65876953D01*
X98942188Y65971953D02*
X99242188Y65971953D01*
X99242188Y66066953D02*
X98942188Y66066953D01*
X98942188Y66161953D02*
X99242188Y66161953D01*
X99242188Y66256953D02*
X98942188Y66256953D01*
X98942188Y66351953D02*
X99242188Y66351953D01*
X99242188Y66446953D02*
X98942188Y66446953D01*
X98942188Y66541953D02*
X99242188Y66541953D01*
X99242188Y66636953D02*
X98942188Y66636953D01*
X98942188Y66731953D02*
X99242188Y66731953D01*
X99242188Y66826953D02*
X98942188Y66826953D01*
X99892188Y66861953D02*
X99892188Y65401953D01*
X99592188Y65401953D01*
X99592188Y66861953D01*
X99892188Y66861953D01*
X99892188Y65496953D02*
X99592188Y65496953D01*
X99592188Y65591953D02*
X99892188Y65591953D01*
X99892188Y65686953D02*
X99592188Y65686953D01*
X99592188Y65781953D02*
X99892188Y65781953D01*
X99892188Y65876953D02*
X99592188Y65876953D01*
X99592188Y65971953D02*
X99892188Y65971953D01*
X99892188Y66066953D02*
X99592188Y66066953D01*
X99592188Y66161953D02*
X99892188Y66161953D01*
X99892188Y66256953D02*
X99592188Y66256953D01*
X99592188Y66351953D02*
X99892188Y66351953D01*
X99892188Y66446953D02*
X99592188Y66446953D01*
X99592188Y66541953D02*
X99892188Y66541953D01*
X99892188Y66636953D02*
X99592188Y66636953D01*
X99592188Y66731953D02*
X99892188Y66731953D01*
X99892188Y66826953D02*
X99592188Y66826953D01*
X100542188Y66861953D02*
X100542188Y65401953D01*
X100242188Y65401953D01*
X100242188Y66861953D01*
X100542188Y66861953D01*
X100542188Y65496953D02*
X100242188Y65496953D01*
X100242188Y65591953D02*
X100542188Y65591953D01*
X100542188Y65686953D02*
X100242188Y65686953D01*
X100242188Y65781953D02*
X100542188Y65781953D01*
X100542188Y65876953D02*
X100242188Y65876953D01*
X100242188Y65971953D02*
X100542188Y65971953D01*
X100542188Y66066953D02*
X100242188Y66066953D01*
X100242188Y66161953D02*
X100542188Y66161953D01*
X100542188Y66256953D02*
X100242188Y66256953D01*
X100242188Y66351953D02*
X100542188Y66351953D01*
X100542188Y66446953D02*
X100242188Y66446953D01*
X100242188Y66541953D02*
X100542188Y66541953D01*
X100542188Y66636953D02*
X100242188Y66636953D01*
X100242188Y66731953D02*
X100542188Y66731953D01*
X100542188Y66826953D02*
X100242188Y66826953D01*
D26*
X96795313Y63400384D03*
X95845313Y63400384D03*
X94895313Y63400384D03*
X94895313Y66080084D03*
X95845313Y66080084D03*
X96795313Y66080084D03*
D16*
X93297266Y69949219D03*
X91547266Y69949219D03*
D13*
X99714844Y71788672D03*
X99714844Y70788672D03*
D15*
X96738281Y68181250D03*
X96738281Y69931250D03*
D20*
X85522656Y85873828D03*
X86522656Y85873828D03*
D24*
X120906641Y18603516D03*
X118706641Y19553516D03*
X118706641Y17653516D03*
D13*
X122336719Y19698828D03*
X122336719Y18698828D03*
X116830078Y18698828D03*
X116830078Y19698828D03*
D27*
X124122656Y25082500D03*
X124122656Y22542500D03*
D24*
X98317188Y26136719D03*
X98317188Y28036719D03*
X100517188Y27086719D03*
D28*
X31383006Y91231638D03*
X30083006Y91231638D03*
D29*
X47773828Y33319641D03*
X47773828Y34843641D03*
D30*
X24878516Y97753438D03*
X25678516Y97753438D03*
D31*
X27378516Y97753438D03*
X26378516Y97753438D03*
X26878516Y97753438D03*
X27878516Y97753438D03*
X28378516Y97753438D03*
X28878516Y97753438D03*
X29378516Y97753438D03*
X29878516Y97753438D03*
D30*
X30578516Y97753438D03*
X31378516Y97753438D03*
D10*
X291851953Y88345703D03*
X291851953Y90545703D03*
D15*
X290066016Y100143359D03*
X290066016Y98393359D03*
D16*
X93297266Y68609766D03*
X91547266Y68609766D03*
X93297266Y67270313D03*
X91547266Y67270313D03*
D32*
X47125000Y94750000D03*
X47125000Y95700000D03*
X48075000Y95700000D03*
X48075000Y94750000D03*
X85225000Y94750000D03*
X85225000Y95700000D03*
X86175000Y95700000D03*
X86175000Y94750000D03*
X104423828Y94750000D03*
X104423828Y95700000D03*
X105373828Y95700000D03*
X105373828Y94750000D03*
X123325000Y94750000D03*
X123325000Y95700000D03*
X124275000Y95700000D03*
X124275000Y94750000D03*
X142375000Y94750000D03*
X142375000Y95700000D03*
X143325000Y95700000D03*
X143325000Y94750000D03*
X161425000Y94750000D03*
X161425000Y95700000D03*
X162375000Y95700000D03*
X162375000Y94750000D03*
X180475000Y94750000D03*
X180475000Y95700000D03*
X181425000Y95700000D03*
X181425000Y94750000D03*
X199525000Y94750000D03*
X199525000Y95700000D03*
X200475000Y95700000D03*
X200475000Y94750000D03*
X218575000Y94750000D03*
X218575000Y95700000D03*
X219525000Y95700000D03*
X219525000Y94750000D03*
X256675000Y94750000D03*
X256675000Y95700000D03*
X257625000Y95700000D03*
X257625000Y94750000D03*
X274980859Y68067969D03*
X275930859Y68067969D03*
X275930859Y67117969D03*
X274980859Y67117969D03*
X274980859Y49017969D03*
X275930859Y49017969D03*
X275930859Y48067969D03*
X274980859Y48067969D03*
X257675000Y29521484D03*
X257675000Y28571484D03*
X256725000Y28571484D03*
X256725000Y29521484D03*
X219575000Y29521484D03*
X219575000Y28571484D03*
X218625000Y28571484D03*
X218625000Y29521484D03*
X200525000Y29521484D03*
X200525000Y28571484D03*
X199575000Y28571484D03*
X199575000Y29521484D03*
X181623828Y29521484D03*
X181623828Y28571484D03*
X180673828Y28571484D03*
X180673828Y29521484D03*
X162425000Y29521484D03*
X162425000Y28571484D03*
X161475000Y28571484D03*
X161475000Y29521484D03*
X143375000Y29521484D03*
X143375000Y28571484D03*
X142425000Y28571484D03*
X142425000Y29521484D03*
X124325000Y29521484D03*
X124325000Y28571484D03*
X123375000Y28571484D03*
X123375000Y29521484D03*
X105423828Y30265625D03*
X105423828Y29315625D03*
X104473828Y29315625D03*
X104473828Y30265625D03*
X85778516Y29447069D03*
X85778516Y28497069D03*
X84828516Y28497069D03*
X84828516Y29447069D03*
X48125000Y29372656D03*
X48125000Y28422656D03*
X47175000Y28422656D03*
X47175000Y29372656D03*
X23568359Y48017969D03*
X22618359Y48017969D03*
X22618359Y48967969D03*
X23568359Y48967969D03*
X22568359Y67216797D03*
X22568359Y68166797D03*
X23518359Y68166797D03*
X23518359Y67216797D03*
D16*
X48500000Y97184766D03*
X46750000Y97184766D03*
X86600000Y97184766D03*
X84850000Y97184766D03*
X105650000Y97184766D03*
X103900000Y97184766D03*
X124700000Y97184766D03*
X122950000Y97184766D03*
X143750000Y97184766D03*
X142000000Y97184766D03*
X162800000Y97184766D03*
X161050000Y97184766D03*
X181850000Y97184766D03*
X180100000Y97184766D03*
X200900000Y97184766D03*
X199150000Y97184766D03*
X219950000Y96887109D03*
X218200000Y96887109D03*
X258050000Y96887109D03*
X256300000Y96887109D03*
D15*
X277415625Y66692969D03*
X277415625Y68442969D03*
X277415625Y47791797D03*
X277415625Y49541797D03*
X259407422Y30045313D03*
X259407422Y28295313D03*
D16*
X222777734Y28723828D03*
X221027734Y28723828D03*
X203876563Y28723828D03*
X202126563Y28723828D03*
X185124219Y28723828D03*
X183374219Y28723828D03*
X165776563Y28723828D03*
X164026563Y28723828D03*
X146726563Y28723828D03*
X144976563Y28723828D03*
X127974219Y28872656D03*
X126224219Y28872656D03*
X108775391Y29467969D03*
X107025391Y29467969D03*
D15*
X85129688Y25467578D03*
X85129688Y27217578D03*
D16*
X51848634Y28054100D03*
X50098634Y28054100D03*
X21002734Y46732031D03*
X22752734Y46732031D03*
D15*
X23961328Y71419531D03*
X23961328Y69669531D03*
X45839063Y90877541D03*
X45839063Y92627541D03*
D33*
X32310391Y84623478D03*
X31090391Y84623478D03*
X32310391Y83403478D03*
X31090391Y83403478D03*
D34*
X33280391Y84948478D02*
X33280391Y85078478D01*
X33990391Y85078478D01*
X33990391Y84948478D01*
X33280391Y84948478D01*
X33280391Y85071978D02*
X33990391Y85071978D01*
X33280391Y84578478D02*
X33280391Y84448478D01*
X33280391Y84578478D02*
X33990391Y84578478D01*
X33990391Y84448478D01*
X33280391Y84448478D01*
X33280391Y84571978D02*
X33990391Y84571978D01*
X33280391Y84078478D02*
X33280391Y83948478D01*
X33280391Y84078478D02*
X33990391Y84078478D01*
X33990391Y83948478D01*
X33280391Y83948478D01*
X33280391Y84071978D02*
X33990391Y84071978D01*
X33280391Y83578478D02*
X33280391Y83448478D01*
X33280391Y83578478D02*
X33990391Y83578478D01*
X33990391Y83448478D01*
X33280391Y83448478D01*
X33280391Y83571978D02*
X33990391Y83571978D01*
X33280391Y83078478D02*
X33280391Y82948478D01*
X33280391Y83078478D02*
X33990391Y83078478D01*
X33990391Y82948478D01*
X33280391Y82948478D01*
X33280391Y83071978D02*
X33990391Y83071978D01*
X32765391Y81723478D02*
X32635391Y81723478D01*
X32635391Y82433478D01*
X32765391Y82433478D01*
X32765391Y81723478D01*
X32765391Y81846978D02*
X32635391Y81846978D01*
X32635391Y81970478D02*
X32765391Y81970478D01*
X32765391Y82093978D02*
X32635391Y82093978D01*
X32635391Y82217478D02*
X32765391Y82217478D01*
X32765391Y82340978D02*
X32635391Y82340978D01*
X32265391Y81723478D02*
X32135391Y81723478D01*
X32135391Y82433478D01*
X32265391Y82433478D01*
X32265391Y81723478D01*
X32265391Y81846978D02*
X32135391Y81846978D01*
X32135391Y81970478D02*
X32265391Y81970478D01*
X32265391Y82093978D02*
X32135391Y82093978D01*
X32135391Y82217478D02*
X32265391Y82217478D01*
X32265391Y82340978D02*
X32135391Y82340978D01*
X31765391Y81723478D02*
X31635391Y81723478D01*
X31635391Y82433478D01*
X31765391Y82433478D01*
X31765391Y81723478D01*
X31765391Y81846978D02*
X31635391Y81846978D01*
X31635391Y81970478D02*
X31765391Y81970478D01*
X31765391Y82093978D02*
X31635391Y82093978D01*
X31635391Y82217478D02*
X31765391Y82217478D01*
X31765391Y82340978D02*
X31635391Y82340978D01*
X31265391Y81723478D02*
X31135391Y81723478D01*
X31135391Y82433478D01*
X31265391Y82433478D01*
X31265391Y81723478D01*
X31265391Y81846978D02*
X31135391Y81846978D01*
X31135391Y81970478D02*
X31265391Y81970478D01*
X31265391Y82093978D02*
X31135391Y82093978D01*
X31135391Y82217478D02*
X31265391Y82217478D01*
X31265391Y82340978D02*
X31135391Y82340978D01*
X30765391Y81723478D02*
X30635391Y81723478D01*
X30635391Y82433478D01*
X30765391Y82433478D01*
X30765391Y81723478D01*
X30765391Y81846978D02*
X30635391Y81846978D01*
X30635391Y81970478D02*
X30765391Y81970478D01*
X30765391Y82093978D02*
X30635391Y82093978D01*
X30635391Y82217478D02*
X30765391Y82217478D01*
X30765391Y82340978D02*
X30635391Y82340978D01*
X29410391Y82948478D02*
X29410391Y83078478D01*
X30120391Y83078478D01*
X30120391Y82948478D01*
X29410391Y82948478D01*
X29410391Y83071978D02*
X30120391Y83071978D01*
X29410391Y83448478D02*
X29410391Y83578478D01*
X30120391Y83578478D01*
X30120391Y83448478D01*
X29410391Y83448478D01*
X29410391Y83571978D02*
X30120391Y83571978D01*
X29410391Y83948478D02*
X29410391Y84078478D01*
X30120391Y84078478D01*
X30120391Y83948478D01*
X29410391Y83948478D01*
X29410391Y84071978D02*
X30120391Y84071978D01*
X29410391Y84448478D02*
X29410391Y84578478D01*
X30120391Y84578478D01*
X30120391Y84448478D01*
X29410391Y84448478D01*
X29410391Y84571978D02*
X30120391Y84571978D01*
X29410391Y84948478D02*
X29410391Y85078478D01*
X30120391Y85078478D01*
X30120391Y84948478D01*
X29410391Y84948478D01*
X29410391Y85071978D02*
X30120391Y85071978D01*
X30635391Y85593478D02*
X30765391Y85593478D01*
X30635391Y85593478D02*
X30635391Y86303478D01*
X30765391Y86303478D01*
X30765391Y85593478D01*
X30765391Y85716978D02*
X30635391Y85716978D01*
X30635391Y85840478D02*
X30765391Y85840478D01*
X30765391Y85963978D02*
X30635391Y85963978D01*
X30635391Y86087478D02*
X30765391Y86087478D01*
X30765391Y86210978D02*
X30635391Y86210978D01*
X31135391Y85593478D02*
X31265391Y85593478D01*
X31135391Y85593478D02*
X31135391Y86303478D01*
X31265391Y86303478D01*
X31265391Y85593478D01*
X31265391Y85716978D02*
X31135391Y85716978D01*
X31135391Y85840478D02*
X31265391Y85840478D01*
X31265391Y85963978D02*
X31135391Y85963978D01*
X31135391Y86087478D02*
X31265391Y86087478D01*
X31265391Y86210978D02*
X31135391Y86210978D01*
X31635391Y85593478D02*
X31765391Y85593478D01*
X31635391Y85593478D02*
X31635391Y86303478D01*
X31765391Y86303478D01*
X31765391Y85593478D01*
X31765391Y85716978D02*
X31635391Y85716978D01*
X31635391Y85840478D02*
X31765391Y85840478D01*
X31765391Y85963978D02*
X31635391Y85963978D01*
X31635391Y86087478D02*
X31765391Y86087478D01*
X31765391Y86210978D02*
X31635391Y86210978D01*
X32135391Y85593478D02*
X32265391Y85593478D01*
X32135391Y85593478D02*
X32135391Y86303478D01*
X32265391Y86303478D01*
X32265391Y85593478D01*
X32265391Y85716978D02*
X32135391Y85716978D01*
X32135391Y85840478D02*
X32265391Y85840478D01*
X32265391Y85963978D02*
X32135391Y85963978D01*
X32135391Y86087478D02*
X32265391Y86087478D01*
X32265391Y86210978D02*
X32135391Y86210978D01*
X32635391Y85593478D02*
X32765391Y85593478D01*
X32635391Y85593478D02*
X32635391Y86303478D01*
X32765391Y86303478D01*
X32765391Y85593478D01*
X32765391Y85716978D02*
X32635391Y85716978D01*
X32635391Y85840478D02*
X32765391Y85840478D01*
X32765391Y85963978D02*
X32635391Y85963978D01*
X32635391Y86087478D02*
X32765391Y86087478D01*
X32765391Y86210978D02*
X32635391Y86210978D01*
D35*
X38323244Y81334569D03*
D36*
X37468244Y81984569D02*
X37468244Y82654569D01*
X37678244Y82654569D01*
X37678244Y81984569D01*
X37468244Y81984569D01*
X37468244Y82051069D02*
X37678244Y82051069D01*
X37678244Y82117569D02*
X37468244Y82117569D01*
X37468244Y82184069D02*
X37678244Y82184069D01*
X37678244Y82250569D02*
X37468244Y82250569D01*
X37468244Y82317069D02*
X37678244Y82317069D01*
X37678244Y82383569D02*
X37468244Y82383569D01*
X37468244Y82450069D02*
X37678244Y82450069D01*
X37678244Y82516569D02*
X37468244Y82516569D01*
X37468244Y82583069D02*
X37678244Y82583069D01*
X37678244Y82649569D02*
X37468244Y82649569D01*
X37968244Y82654569D02*
X37968244Y81984569D01*
X37968244Y82654569D02*
X38178244Y82654569D01*
X38178244Y81984569D01*
X37968244Y81984569D01*
X37968244Y82051069D02*
X38178244Y82051069D01*
X38178244Y82117569D02*
X37968244Y82117569D01*
X37968244Y82184069D02*
X38178244Y82184069D01*
X38178244Y82250569D02*
X37968244Y82250569D01*
X37968244Y82317069D02*
X38178244Y82317069D01*
X38178244Y82383569D02*
X37968244Y82383569D01*
X37968244Y82450069D02*
X38178244Y82450069D01*
X38178244Y82516569D02*
X37968244Y82516569D01*
X37968244Y82583069D02*
X38178244Y82583069D01*
X38178244Y82649569D02*
X37968244Y82649569D01*
X38468244Y82654569D02*
X38468244Y81984569D01*
X38468244Y82654569D02*
X38678244Y82654569D01*
X38678244Y81984569D01*
X38468244Y81984569D01*
X38468244Y82051069D02*
X38678244Y82051069D01*
X38678244Y82117569D02*
X38468244Y82117569D01*
X38468244Y82184069D02*
X38678244Y82184069D01*
X38678244Y82250569D02*
X38468244Y82250569D01*
X38468244Y82317069D02*
X38678244Y82317069D01*
X38678244Y82383569D02*
X38468244Y82383569D01*
X38468244Y82450069D02*
X38678244Y82450069D01*
X38678244Y82516569D02*
X38468244Y82516569D01*
X38468244Y82583069D02*
X38678244Y82583069D01*
X38678244Y82649569D02*
X38468244Y82649569D01*
X38968244Y82654569D02*
X38968244Y81984569D01*
X38968244Y82654569D02*
X39178244Y82654569D01*
X39178244Y81984569D01*
X38968244Y81984569D01*
X38968244Y82051069D02*
X39178244Y82051069D01*
X39178244Y82117569D02*
X38968244Y82117569D01*
X38968244Y82184069D02*
X39178244Y82184069D01*
X39178244Y82250569D02*
X38968244Y82250569D01*
X38968244Y82317069D02*
X39178244Y82317069D01*
X39178244Y82383569D02*
X38968244Y82383569D01*
X38968244Y82450069D02*
X39178244Y82450069D01*
X39178244Y82516569D02*
X38968244Y82516569D01*
X38968244Y82583069D02*
X39178244Y82583069D01*
X39178244Y82649569D02*
X38968244Y82649569D01*
X38968244Y80684569D02*
X38968244Y80014569D01*
X38968244Y80684569D02*
X39178244Y80684569D01*
X39178244Y80014569D01*
X38968244Y80014569D01*
X38968244Y80081069D02*
X39178244Y80081069D01*
X39178244Y80147569D02*
X38968244Y80147569D01*
X38968244Y80214069D02*
X39178244Y80214069D01*
X39178244Y80280569D02*
X38968244Y80280569D01*
X38968244Y80347069D02*
X39178244Y80347069D01*
X39178244Y80413569D02*
X38968244Y80413569D01*
X38968244Y80480069D02*
X39178244Y80480069D01*
X39178244Y80546569D02*
X38968244Y80546569D01*
X38968244Y80613069D02*
X39178244Y80613069D01*
X39178244Y80679569D02*
X38968244Y80679569D01*
X38468244Y80684569D02*
X38468244Y80014569D01*
X38468244Y80684569D02*
X38678244Y80684569D01*
X38678244Y80014569D01*
X38468244Y80014569D01*
X38468244Y80081069D02*
X38678244Y80081069D01*
X38678244Y80147569D02*
X38468244Y80147569D01*
X38468244Y80214069D02*
X38678244Y80214069D01*
X38678244Y80280569D02*
X38468244Y80280569D01*
X38468244Y80347069D02*
X38678244Y80347069D01*
X38678244Y80413569D02*
X38468244Y80413569D01*
X38468244Y80480069D02*
X38678244Y80480069D01*
X38678244Y80546569D02*
X38468244Y80546569D01*
X38468244Y80613069D02*
X38678244Y80613069D01*
X38678244Y80679569D02*
X38468244Y80679569D01*
X37968244Y80684569D02*
X37968244Y80014569D01*
X37968244Y80684569D02*
X38178244Y80684569D01*
X38178244Y80014569D01*
X37968244Y80014569D01*
X37968244Y80081069D02*
X38178244Y80081069D01*
X38178244Y80147569D02*
X37968244Y80147569D01*
X37968244Y80214069D02*
X38178244Y80214069D01*
X38178244Y80280569D02*
X37968244Y80280569D01*
X37968244Y80347069D02*
X38178244Y80347069D01*
X38178244Y80413569D02*
X37968244Y80413569D01*
X37968244Y80480069D02*
X38178244Y80480069D01*
X38178244Y80546569D02*
X37968244Y80546569D01*
X37968244Y80613069D02*
X38178244Y80613069D01*
X38178244Y80679569D02*
X37968244Y80679569D01*
X37468244Y80684569D02*
X37468244Y80014569D01*
X37468244Y80684569D02*
X37678244Y80684569D01*
X37678244Y80014569D01*
X37468244Y80014569D01*
X37468244Y80081069D02*
X37678244Y80081069D01*
X37678244Y80147569D02*
X37468244Y80147569D01*
X37468244Y80214069D02*
X37678244Y80214069D01*
X37678244Y80280569D02*
X37468244Y80280569D01*
X37468244Y80347069D02*
X37678244Y80347069D01*
X37678244Y80413569D02*
X37468244Y80413569D01*
X37468244Y80480069D02*
X37678244Y80480069D01*
X37678244Y80546569D02*
X37468244Y80546569D01*
X37468244Y80613069D02*
X37678244Y80613069D01*
X37678244Y80679569D02*
X37468244Y80679569D01*
D37*
X36314063Y82327456D03*
X36314063Y80192856D03*
D15*
X36760544Y85558200D03*
X36760544Y83808200D03*
D16*
X38117969Y84311131D03*
X39867969Y84311131D03*
D13*
X40927734Y81876372D03*
X40927734Y82876372D03*
X40927734Y79792772D03*
X40927734Y80792772D03*
D16*
X38117972Y85576172D03*
X39867972Y85576172D03*
D20*
X32837497Y80813669D03*
X33837497Y80813669D03*
D13*
X28426172Y86671484D03*
X28426172Y85671484D03*
X28426172Y84587894D03*
X28426172Y83587894D03*
X28426175Y81504294D03*
X28426175Y82504294D03*
D16*
X28816209Y71586328D03*
X30566209Y71586328D03*
D15*
X28872656Y66508206D03*
X28872656Y64758206D03*
D16*
X46341991Y67493556D03*
X44591991Y67493556D03*
D38*
X28789516Y93082794D02*
X28789516Y93804794D01*
X28789516Y93082794D02*
X28467516Y93082794D01*
X28467516Y93804794D01*
X28789516Y93804794D01*
X28789516Y93109394D02*
X28467516Y93109394D01*
X28467516Y93135994D02*
X28789516Y93135994D01*
X28789516Y93162594D02*
X28467516Y93162594D01*
X28467516Y93189194D02*
X28789516Y93189194D01*
X28789516Y93215794D02*
X28467516Y93215794D01*
X28467516Y93242394D02*
X28789516Y93242394D01*
X28789516Y93268994D02*
X28467516Y93268994D01*
X28467516Y93295594D02*
X28789516Y93295594D01*
X28789516Y93322194D02*
X28467516Y93322194D01*
X28467516Y93348794D02*
X28789516Y93348794D01*
X28789516Y93375394D02*
X28467516Y93375394D01*
X28467516Y93401994D02*
X28789516Y93401994D01*
X28789516Y93428594D02*
X28467516Y93428594D01*
X28467516Y93455194D02*
X28789516Y93455194D01*
X28789516Y93481794D02*
X28467516Y93481794D01*
X28467516Y93508394D02*
X28789516Y93508394D01*
X28789516Y93534994D02*
X28467516Y93534994D01*
X28467516Y93561594D02*
X28789516Y93561594D01*
X28789516Y93588194D02*
X28467516Y93588194D01*
X28467516Y93614794D02*
X28789516Y93614794D01*
X28789516Y93641394D02*
X28467516Y93641394D01*
X28467516Y93667994D02*
X28789516Y93667994D01*
X28789516Y93694594D02*
X28467516Y93694594D01*
X28467516Y93721194D02*
X28789516Y93721194D01*
X28789516Y93747794D02*
X28467516Y93747794D01*
X28467516Y93774394D02*
X28789516Y93774394D01*
X28789516Y93800994D02*
X28467516Y93800994D01*
X28289516Y93804794D02*
X28289516Y93082794D01*
X27967516Y93082794D01*
X27967516Y93804794D01*
X28289516Y93804794D01*
X28289516Y93109394D02*
X27967516Y93109394D01*
X27967516Y93135994D02*
X28289516Y93135994D01*
X28289516Y93162594D02*
X27967516Y93162594D01*
X27967516Y93189194D02*
X28289516Y93189194D01*
X28289516Y93215794D02*
X27967516Y93215794D01*
X27967516Y93242394D02*
X28289516Y93242394D01*
X28289516Y93268994D02*
X27967516Y93268994D01*
X27967516Y93295594D02*
X28289516Y93295594D01*
X28289516Y93322194D02*
X27967516Y93322194D01*
X27967516Y93348794D02*
X28289516Y93348794D01*
X28289516Y93375394D02*
X27967516Y93375394D01*
X27967516Y93401994D02*
X28289516Y93401994D01*
X28289516Y93428594D02*
X27967516Y93428594D01*
X27967516Y93455194D02*
X28289516Y93455194D01*
X28289516Y93481794D02*
X27967516Y93481794D01*
X27967516Y93508394D02*
X28289516Y93508394D01*
X28289516Y93534994D02*
X27967516Y93534994D01*
X27967516Y93561594D02*
X28289516Y93561594D01*
X28289516Y93588194D02*
X27967516Y93588194D01*
X27967516Y93614794D02*
X28289516Y93614794D01*
X28289516Y93641394D02*
X27967516Y93641394D01*
X27967516Y93667994D02*
X28289516Y93667994D01*
X28289516Y93694594D02*
X27967516Y93694594D01*
X27967516Y93721194D02*
X28289516Y93721194D01*
X28289516Y93747794D02*
X27967516Y93747794D01*
X27967516Y93774394D02*
X28289516Y93774394D01*
X28289516Y93800994D02*
X27967516Y93800994D01*
X27789516Y93804794D02*
X27789516Y93082794D01*
X27467516Y93082794D01*
X27467516Y93804794D01*
X27789516Y93804794D01*
X27789516Y93109394D02*
X27467516Y93109394D01*
X27467516Y93135994D02*
X27789516Y93135994D01*
X27789516Y93162594D02*
X27467516Y93162594D01*
X27467516Y93189194D02*
X27789516Y93189194D01*
X27789516Y93215794D02*
X27467516Y93215794D01*
X27467516Y93242394D02*
X27789516Y93242394D01*
X27789516Y93268994D02*
X27467516Y93268994D01*
X27467516Y93295594D02*
X27789516Y93295594D01*
X27789516Y93322194D02*
X27467516Y93322194D01*
X27467516Y93348794D02*
X27789516Y93348794D01*
X27789516Y93375394D02*
X27467516Y93375394D01*
X27467516Y93401994D02*
X27789516Y93401994D01*
X27789516Y93428594D02*
X27467516Y93428594D01*
X27467516Y93455194D02*
X27789516Y93455194D01*
X27789516Y93481794D02*
X27467516Y93481794D01*
X27467516Y93508394D02*
X27789516Y93508394D01*
X27789516Y93534994D02*
X27467516Y93534994D01*
X27467516Y93561594D02*
X27789516Y93561594D01*
X27789516Y93588194D02*
X27467516Y93588194D01*
X27467516Y93614794D02*
X27789516Y93614794D01*
X27789516Y93641394D02*
X27467516Y93641394D01*
X27467516Y93667994D02*
X27789516Y93667994D01*
X27789516Y93694594D02*
X27467516Y93694594D01*
X27467516Y93721194D02*
X27789516Y93721194D01*
X27789516Y93747794D02*
X27467516Y93747794D01*
X27467516Y93774394D02*
X27789516Y93774394D01*
X27789516Y93800994D02*
X27467516Y93800994D01*
X27789516Y94462794D02*
X27789516Y95184794D01*
X27789516Y94462794D02*
X27467516Y94462794D01*
X27467516Y95184794D01*
X27789516Y95184794D01*
X27789516Y94489394D02*
X27467516Y94489394D01*
X27467516Y94515994D02*
X27789516Y94515994D01*
X27789516Y94542594D02*
X27467516Y94542594D01*
X27467516Y94569194D02*
X27789516Y94569194D01*
X27789516Y94595794D02*
X27467516Y94595794D01*
X27467516Y94622394D02*
X27789516Y94622394D01*
X27789516Y94648994D02*
X27467516Y94648994D01*
X27467516Y94675594D02*
X27789516Y94675594D01*
X27789516Y94702194D02*
X27467516Y94702194D01*
X27467516Y94728794D02*
X27789516Y94728794D01*
X27789516Y94755394D02*
X27467516Y94755394D01*
X27467516Y94781994D02*
X27789516Y94781994D01*
X27789516Y94808594D02*
X27467516Y94808594D01*
X27467516Y94835194D02*
X27789516Y94835194D01*
X27789516Y94861794D02*
X27467516Y94861794D01*
X27467516Y94888394D02*
X27789516Y94888394D01*
X27789516Y94914994D02*
X27467516Y94914994D01*
X27467516Y94941594D02*
X27789516Y94941594D01*
X27789516Y94968194D02*
X27467516Y94968194D01*
X27467516Y94994794D02*
X27789516Y94994794D01*
X27789516Y95021394D02*
X27467516Y95021394D01*
X27467516Y95047994D02*
X27789516Y95047994D01*
X27789516Y95074594D02*
X27467516Y95074594D01*
X27467516Y95101194D02*
X27789516Y95101194D01*
X27789516Y95127794D02*
X27467516Y95127794D01*
X27467516Y95154394D02*
X27789516Y95154394D01*
X27789516Y95180994D02*
X27467516Y95180994D01*
X28289516Y95184794D02*
X28289516Y94462794D01*
X27967516Y94462794D01*
X27967516Y95184794D01*
X28289516Y95184794D01*
X28289516Y94489394D02*
X27967516Y94489394D01*
X27967516Y94515994D02*
X28289516Y94515994D01*
X28289516Y94542594D02*
X27967516Y94542594D01*
X27967516Y94569194D02*
X28289516Y94569194D01*
X28289516Y94595794D02*
X27967516Y94595794D01*
X27967516Y94622394D02*
X28289516Y94622394D01*
X28289516Y94648994D02*
X27967516Y94648994D01*
X27967516Y94675594D02*
X28289516Y94675594D01*
X28289516Y94702194D02*
X27967516Y94702194D01*
X27967516Y94728794D02*
X28289516Y94728794D01*
X28289516Y94755394D02*
X27967516Y94755394D01*
X27967516Y94781994D02*
X28289516Y94781994D01*
X28289516Y94808594D02*
X27967516Y94808594D01*
X27967516Y94835194D02*
X28289516Y94835194D01*
X28289516Y94861794D02*
X27967516Y94861794D01*
X27967516Y94888394D02*
X28289516Y94888394D01*
X28289516Y94914994D02*
X27967516Y94914994D01*
X27967516Y94941594D02*
X28289516Y94941594D01*
X28289516Y94968194D02*
X27967516Y94968194D01*
X27967516Y94994794D02*
X28289516Y94994794D01*
X28289516Y95021394D02*
X27967516Y95021394D01*
X27967516Y95047994D02*
X28289516Y95047994D01*
X28289516Y95074594D02*
X27967516Y95074594D01*
X27967516Y95101194D02*
X28289516Y95101194D01*
X28289516Y95127794D02*
X27967516Y95127794D01*
X27967516Y95154394D02*
X28289516Y95154394D01*
X28289516Y95180994D02*
X27967516Y95180994D01*
X28789516Y95184794D02*
X28789516Y94462794D01*
X28467516Y94462794D01*
X28467516Y95184794D01*
X28789516Y95184794D01*
X28789516Y94489394D02*
X28467516Y94489394D01*
X28467516Y94515994D02*
X28789516Y94515994D01*
X28789516Y94542594D02*
X28467516Y94542594D01*
X28467516Y94569194D02*
X28789516Y94569194D01*
X28789516Y94595794D02*
X28467516Y94595794D01*
X28467516Y94622394D02*
X28789516Y94622394D01*
X28789516Y94648994D02*
X28467516Y94648994D01*
X28467516Y94675594D02*
X28789516Y94675594D01*
X28789516Y94702194D02*
X28467516Y94702194D01*
X28467516Y94728794D02*
X28789516Y94728794D01*
X28789516Y94755394D02*
X28467516Y94755394D01*
X28467516Y94781994D02*
X28789516Y94781994D01*
X28789516Y94808594D02*
X28467516Y94808594D01*
X28467516Y94835194D02*
X28789516Y94835194D01*
X28789516Y94861794D02*
X28467516Y94861794D01*
X28467516Y94888394D02*
X28789516Y94888394D01*
X28789516Y94914994D02*
X28467516Y94914994D01*
X28467516Y94941594D02*
X28789516Y94941594D01*
X28789516Y94968194D02*
X28467516Y94968194D01*
X28467516Y94994794D02*
X28789516Y94994794D01*
X28789516Y95021394D02*
X28467516Y95021394D01*
X28467516Y95047994D02*
X28789516Y95047994D01*
X28789516Y95074594D02*
X28467516Y95074594D01*
X28467516Y95101194D02*
X28789516Y95101194D01*
X28789516Y95127794D02*
X28467516Y95127794D01*
X28467516Y95154394D02*
X28789516Y95154394D01*
X28789516Y95180994D02*
X28467516Y95180994D01*
D13*
X41523047Y57352341D03*
X41523047Y56352341D03*
X41523047Y55268750D03*
X41523047Y54268750D03*
M02*
