G04 EAGLE Gerber RS-274X export*
G75*
%MOMM*%
%FSLAX66Y66*%
%LPD*%
%INSolderpaste Top*%
%IPPOS*%
%AMOC8*
5,1,8,0,0,1.08239X$1,22.5*%
G01*
%ADD10R,2.000000X1.300000*%
%ADD11R,2.000000X1.750000*%
%ADD12R,1.200000X1.250000*%


D10*
X25112500Y82985000D03*
X22512500Y82985000D03*
X48925000Y82985000D03*
X46325000Y82985000D03*
X67975000Y82985000D03*
X65375000Y82985000D03*
X87025000Y82985000D03*
X84425000Y82985000D03*
X106075000Y82985000D03*
X103475000Y82985000D03*
X125125000Y82985000D03*
X122525000Y82985000D03*
X144175000Y82985000D03*
X141575000Y82985000D03*
X163225000Y82985000D03*
X160625000Y82985000D03*
X182275000Y82985000D03*
X179675000Y82985000D03*
X201325000Y82985000D03*
X198725000Y82985000D03*
X220375000Y82985000D03*
X217775000Y82985000D03*
X239425000Y82985000D03*
X236825000Y82985000D03*
X258475000Y82985000D03*
X255875000Y82985000D03*
X282287500Y82985000D03*
X279687500Y82985000D03*
X20350000Y102035000D03*
X17750000Y102035000D03*
X39400000Y102035000D03*
X36800000Y102035000D03*
X58450000Y102035000D03*
X55850000Y102035000D03*
X77500000Y102035000D03*
X74900000Y102035000D03*
X96550000Y102035000D03*
X93950000Y102035000D03*
X115600000Y102035000D03*
X113000000Y102035000D03*
X134650000Y102035000D03*
X132050000Y102035000D03*
X153700000Y102035000D03*
X151100000Y102035000D03*
X172750000Y102035000D03*
X170150000Y102035000D03*
X191800000Y102035000D03*
X189200000Y102035000D03*
X210850000Y102035000D03*
X208250000Y102035000D03*
X229900000Y102035000D03*
X227300000Y102035000D03*
X248950000Y102035000D03*
X246350000Y102035000D03*
X27493750Y63935000D03*
X24893750Y63935000D03*
X53687500Y63935000D03*
X51087500Y63935000D03*
X72737500Y63935000D03*
X70137500Y63935000D03*
X91787500Y63935000D03*
X89187500Y63935000D03*
X110837500Y63935000D03*
X108237500Y63935000D03*
X129887500Y63935000D03*
X127287500Y63935000D03*
X148937500Y63935000D03*
X146337500Y63935000D03*
X167987500Y63935000D03*
X165387500Y63935000D03*
X187037500Y63935000D03*
X184437500Y63935000D03*
X206087500Y63935000D03*
X203487500Y63935000D03*
X225137500Y63935000D03*
X222537500Y63935000D03*
X244187500Y63935000D03*
X241587500Y63935000D03*
X248950000Y44885000D03*
X246350000Y44885000D03*
X287050000Y44885000D03*
X284450000Y44885000D03*
X70356250Y25835000D03*
X67756250Y25835000D03*
X229900000Y25835000D03*
X227300000Y25835000D03*
X248950000Y25835000D03*
X246350000Y25835000D03*
X268000000Y25835000D03*
X265400000Y25835000D03*
X237043750Y25835000D03*
X234443750Y25835000D03*
X260856250Y25835000D03*
X258256250Y25835000D03*
X22731250Y63935000D03*
X20131250Y63935000D03*
X277525000Y102035000D03*
X274925000Y102035000D03*
X275143750Y63935000D03*
X272543750Y63935000D03*
X141793750Y25835000D03*
X139193750Y25835000D03*
D11*
X29740000Y45190000D03*
X27140000Y45190000D03*
X32340000Y45190000D03*
X210780000Y26200000D03*
X208180000Y26200000D03*
X213380000Y26200000D03*
X284736250Y26225000D03*
X282136250Y26225000D03*
X287336250Y26225000D03*
X268036250Y45212500D03*
X265436250Y45212500D03*
X270636250Y45212500D03*
X58231250Y45243750D03*
X60831250Y45243750D03*
X55631250Y45243750D03*
X63371250Y45243750D03*
X77281250Y45243750D03*
X79881250Y45243750D03*
X74681250Y45243750D03*
X82421250Y45243750D03*
X96331250Y45243750D03*
X98931250Y45243750D03*
X93731250Y45243750D03*
X101471250Y45243750D03*
X115381250Y45243750D03*
X117981250Y45243750D03*
X112781250Y45243750D03*
X120521250Y45243750D03*
X134431250Y45243750D03*
X137031250Y45243750D03*
X131831250Y45243750D03*
X139571250Y45243750D03*
X153481250Y45243750D03*
X156081250Y45243750D03*
X150881250Y45243750D03*
X158621250Y45243750D03*
X172531250Y45243750D03*
X175131250Y45243750D03*
X169931250Y45243750D03*
X177671250Y45243750D03*
X191581250Y45243750D03*
X194181250Y45243750D03*
X188981250Y45243750D03*
X196721250Y45243750D03*
X210631250Y45243750D03*
X213231250Y45243750D03*
X208031250Y45243750D03*
X215771250Y45243750D03*
X229681250Y45243750D03*
X232281250Y45243750D03*
X227081250Y45243750D03*
X234821250Y45243750D03*
D10*
X268000000Y102035000D03*
X265400000Y102035000D03*
X287050000Y102035000D03*
X284450000Y102035000D03*
X260856250Y44885000D03*
X258256250Y44885000D03*
D12*
X22332422Y26044925D03*
X20232422Y26044925D03*
X46219338Y25896097D03*
X44119338Y25896097D03*
X70106250Y25821681D03*
X68006250Y25821681D03*
X141543750Y25821684D03*
X139443750Y25821684D03*
X210525584Y26119341D03*
X208425584Y26119341D03*
X229650000Y25821684D03*
X227550000Y25821684D03*
X248699997Y44871684D03*
X246599997Y44871684D03*
X248700000Y25821681D03*
X246600000Y25821681D03*
X191326756Y45169338D03*
X189226756Y45169338D03*
X229426756Y45169338D03*
X227326756Y45169338D03*
X153226756Y45169338D03*
X151126756Y45169338D03*
X134176756Y45169338D03*
X132076756Y45169338D03*
X167737500Y63921684D03*
X165637500Y63921684D03*
X115126756Y45169338D03*
X113026756Y45169338D03*
X210376756Y45169338D03*
X208276756Y45169338D03*
X27243750Y63921681D03*
X25143750Y63921681D03*
X267750000Y25821684D03*
X265650000Y25821684D03*
X172276756Y45169338D03*
X170176756Y45169338D03*
X162975000Y82971681D03*
X160875000Y82971681D03*
X96076756Y45169338D03*
X93976756Y45169338D03*
X284997659Y26119331D03*
X287097659Y26119331D03*
X148687497Y63921681D03*
X146587497Y63921681D03*
X267824413Y45094925D03*
X265724413Y45094925D03*
X91537500Y63921681D03*
X89437500Y63921681D03*
X258225000Y82971681D03*
X256125000Y82971681D03*
X182025000Y82971681D03*
X179925000Y82971681D03*
X286800000Y44871681D03*
X284700000Y44871681D03*
X72487497Y63921681D03*
X70387497Y63921681D03*
X186787497Y63921681D03*
X184687497Y63921681D03*
X282037500Y82971681D03*
X279937500Y82971681D03*
X53437500Y63921681D03*
X51337500Y63921681D03*
X105825000Y82971681D03*
X103725000Y82971681D03*
X129637497Y63921681D03*
X127537497Y63921681D03*
X110587500Y63921681D03*
X108487500Y63921681D03*
X210599997Y102021681D03*
X208499997Y102021681D03*
X39150000Y102021681D03*
X37050000Y102021681D03*
X20100000Y102021681D03*
X18000000Y102021681D03*
X239174997Y82971681D03*
X237074997Y82971681D03*
X229650000Y102021681D03*
X227550000Y102021681D03*
X248700000Y102021681D03*
X246600000Y102021681D03*
X124875000Y82971684D03*
X122775000Y82971684D03*
X58200000Y102021681D03*
X56100000Y102021681D03*
X86774997Y82971681D03*
X84674997Y82971681D03*
X67724997Y82971681D03*
X65624997Y82971681D03*
X143924997Y82971681D03*
X141824997Y82971681D03*
X115350000Y102021681D03*
X113250000Y102021681D03*
X77250000Y102021681D03*
X75150000Y102021681D03*
X274893750Y63921681D03*
X272793750Y63921681D03*
X48675000Y82971681D03*
X46575000Y82971681D03*
X277275000Y102021681D03*
X275175000Y102021681D03*
X172499997Y102021681D03*
X170399997Y102021681D03*
X96299997Y102021681D03*
X94199997Y102021681D03*
X29476172Y45020509D03*
X27376172Y45020509D03*
X205837497Y63921681D03*
X203737497Y63921681D03*
X191549997Y102021681D03*
X189449997Y102021681D03*
X153449997Y102021681D03*
X151349997Y102021681D03*
X134399997Y102021681D03*
X132299997Y102021681D03*
X57976759Y45169338D03*
X55876759Y45169338D03*
X224887500Y63921681D03*
X222787500Y63921681D03*
X24862497Y83046094D03*
X22762497Y83046094D03*
X220124997Y82971681D03*
X218024997Y82971681D03*
X201074997Y82971681D03*
X198974997Y82971681D03*
X77026756Y45169338D03*
X74926756Y45169338D03*
X243937500Y63921681D03*
X241837500Y63921681D03*
D11*
X22577463Y26193750D03*
X19977463Y26193750D03*
X25177463Y26193750D03*
X46464378Y26119338D03*
X43864378Y26119338D03*
X49064378Y26119338D03*
D10*
X241806250Y44885000D03*
X239206250Y44885000D03*
M02*
